<?xml version="1.0" encoding="UTF-8"?>
<!DOCTYPE svg PUBLIC "-//W3C//DTD SVG 1.1//EN" "http://www.w3.org/Graphics/SVG/1.1/DTD/svg11.dtd">
<svg xmlns="http://www.w3.org/2000/svg" version="1.1" width="615px" height="192px" style="shape-rendering:geometricPrecision; text-rendering:geometricPrecision; image-rendering:optimizeQuality; fill-rule:evenodd; clip-rule:evenodd" xmlns:xlink="http://www.w3.org/1999/xlink">
<g><path style="opacity:1" fill="#fafbfa" d="M -0.5,-0.5 C 204.5,-0.5 409.5,-0.5 614.5,-0.5C 614.5,63.5 614.5,127.5 614.5,191.5C 409.5,191.5 204.5,191.5 -0.5,191.5C -0.5,127.5 -0.5,63.5 -0.5,-0.5 Z"/></g>
<g><path style="opacity:1" fill="#0e6cbc" d="M 59.5,14.5 C 78.5219,13.4212 91.3553,21.7546 98,39.5C 100.712,60.2714 92.2124,73.7714 72.5,80C 54.7899,82.0582 42.2899,74.8916 35,58.5C 30.2058,36.4912 38.3724,21.8245 59.5,14.5 Z"/></g>
<g><path style="opacity:1" fill="#116bbb" d="M 162.5,32.5 C 182.309,30.3279 193.642,38.9945 196.5,58.5C 193.447,80.3655 181.113,88.8655 159.5,84C 146.006,76.2358 141.173,64.7358 145,49.5C 148.77,41.5613 154.603,35.8946 162.5,32.5 Z"/></g>
<g><path style="opacity:1" fill="#136aba" d="M 587.5,41.5 C 601.858,42.3577 607.024,49.691 603,63.5C 593.523,73.3153 584.856,72.6486 577,61.5C 574.991,51.8483 578.491,45.1816 587.5,41.5 Z"/></g>
<g><path style="opacity:1" fill="#0e5197" d="M 459.5,42.5 C 466.5,42.5 473.5,42.5 480.5,42.5C 480.5,83.5 480.5,124.5 480.5,165.5C 473.5,165.5 466.5,165.5 459.5,165.5C 459.5,124.5 459.5,83.5 459.5,42.5 Z"/></g>
<g><path style="opacity:1" fill="#8db9e7" d="M 88.5,88.5 C 71.1388,88.2228 53.8055,88.5562 36.5,89.5C 37.2625,88.7321 38.2625,88.2321 39.5,88C 56.0052,87.1718 72.3385,87.3385 88.5,88.5 Z"/></g>
<g><path style="opacity:1" fill="#f2f8fb" d="M 564.5,101.5 C 564.5,102.5 564.5,103.5 564.5,104.5C 556.492,104.546 548.825,105.546 541.5,107.5C 541.286,105.856 541.62,104.356 542.5,103C 539.502,103.467 538.336,105.301 539,108.5C 543.217,113.617 548.717,116.45 555.5,117C 554.402,117.77 554.402,118.603 555.5,119.5C 544.746,115.894 533.746,113.061 522.5,111C 515.812,107.536 514.812,102.869 519.5,97C 526.5,93.6667 533.5,93.6667 540.5,97C 542.934,100.466 546.101,102.633 550,103.5C 554.833,102.766 559.666,102.1 564.5,101.5 Z"/></g>
<g><path style="opacity:1" fill="#146bba" d="M 270.5,77.5 C 283.477,75.6383 295.477,78.1383 306.5,85C 311.963,89.5819 314.63,95.2485 314.5,102C 308.74,102.309 303.073,103.142 297.5,104.5C 290.85,94.1327 281.85,91.6327 270.5,97C 266.354,101.625 266.687,105.959 271.5,110C 279.996,112.64 288.663,114.64 297.5,116C 314.3,121.766 320.467,133.266 316,150.5C 310.683,159.469 302.85,164.969 292.5,167C 276.268,170.274 262.101,166.44 250,155.5C 246.462,151.097 244.629,146.097 244.5,140.5C 251.491,139.744 258.491,139.577 265.5,140C 268.568,147.541 274.235,151.041 282.5,150.5C 288.18,150.886 292.68,148.886 296,144.5C 297.293,140.418 296.126,137.251 292.5,135C 282.5,132.667 272.5,130.333 262.5,128C 245.765,119.122 241.932,106.289 251,89.5C 256.543,83.8181 263.043,79.8181 270.5,77.5 Z"/></g>
<g><path style="opacity:1" fill="#3d70ae" d="M 421.5,42.5 C 429.167,42.5 436.833,42.5 444.5,42.5C 444.5,83.5 444.5,124.5 444.5,165.5C 436.833,165.5 429.167,165.5 421.5,165.5C 421.5,124.5 421.5,83.5 421.5,42.5 Z"/></g>
<g><path style="opacity:1" fill="#106bbb" d="M 409.5,128.5 C 388.489,128.167 367.489,128.5 346.5,129.5C 346.624,130.107 346.957,130.44 347.5,130.5C 348.907,139.422 353.907,145.589 362.5,149C 367.5,149.667 372.5,149.667 377.5,149C 382.566,146.595 387.066,143.429 391,139.5C 396.826,141.276 402.66,142.943 408.5,144.5C 407.447,148.905 405.114,152.572 401.5,155.5C 389.38,165.925 375.38,169.758 359.5,167C 336.375,160.702 324.708,145.535 324.5,121.5C 325.467,99.3686 336.467,84.8686 357.5,78C 384.44,74.2066 402.273,85.04 411,110.5C 411.667,116.167 411.667,121.833 411,127.5C 410.617,128.056 410.117,128.389 409.5,128.5 Z"/></g>
<g><path style="opacity:1" fill="#f5fafb" d="M 388.5,109.5 C 388.5,110.5 388.5,111.5 388.5,112.5C 374.833,112.5 361.167,112.5 347.5,112.5C 350.833,99.0308 359.5,93.1974 373.5,95C 381.601,96.7021 386.601,101.535 388.5,109.5 Z"/></g>
<g><path style="opacity:1" fill="#164c88" d="M 116.5,106.5 C 117.289,106.783 117.956,107.283 118.5,108C 109.173,108.5 99.8393,108.666 90.5,108.5C 98.5951,107.807 107.262,107.14 116.5,106.5 Z"/></g>
<g><path style="opacity:1" fill="#116bbb" d="M 210.5,164.5 C 199.167,164.5 187.833,164.5 176.5,164.5C 178.543,159.717 179.876,154.717 180.5,149.5C 182.323,130.305 174.323,117.138 156.5,110C 146.855,109.008 137.188,108.175 127.5,107.5C 133.882,99.3032 142.215,94.1365 152.5,92C 206.678,84.7664 227.511,107.933 215,161.5C 213.729,162.883 212.229,163.883 210.5,164.5 Z"/></g>
<g><path style="opacity:1" fill="#106bbb" d="M 88.5,88.5 C 100.554,90.5124 109.887,96.5124 116.5,106.5C 107.262,107.14 98.5951,107.807 90.5,108.5C 62.8589,117.636 55.0255,135.636 67,162.5C 71.7145,168.56 77.5478,173.06 84.5,176C 61.8333,176.667 39.1667,176.667 16.5,176C 14,174.833 12.1667,173 11,170.5C 10.3333,152.167 10.3333,133.833 11,115.5C 14.9839,102.35 23.4839,93.6832 36.5,89.5C 53.8055,88.5562 71.1388,88.2228 88.5,88.5 Z"/></g>
<g><path style="opacity:1" fill="#4e7db0" d="M 388.5,109.5 C 389.434,110.568 389.768,111.901 389.5,113.5C 375.323,113.829 361.323,113.496 347.5,112.5C 361.167,112.5 374.833,112.5 388.5,112.5C 388.5,111.5 388.5,110.5 388.5,109.5 Z"/></g>
<g><path style="opacity:1" fill="#126bba" d="M 564.5,101.5 C 559.666,102.1 554.833,102.766 550,103.5C 546.101,102.633 542.934,100.466 540.5,97C 533.5,93.6667 526.5,93.6667 519.5,97C 514.812,102.869 515.812,107.536 522.5,111C 533.746,113.061 544.746,115.894 555.5,119.5C 566.122,126.759 569.622,136.759 566,149.5C 561.04,159.119 553.206,164.952 542.5,167C 526.63,170.31 512.63,166.81 500.5,156.5C 496.783,151.746 494.783,146.412 494.5,140.5C 501.522,139.663 508.522,139.663 515.5,140.5C 518.544,147.552 523.878,150.885 531.5,150.5C 539.49,151.775 544.49,148.608 546.5,141C 545.617,137.778 543.617,135.445 540.5,134C 528.566,133.088 517.233,130.088 506.5,125C 502.592,122.594 499.592,119.428 497.5,115.5C 492.046,96.4986 498.712,84.3319 517.5,79C 533.27,74.3524 547.103,77.5191 559,88.5C 561.937,92.3729 563.77,96.7062 564.5,101.5 Z"/></g>
<g><path style="opacity:1" fill="#87b4e5" d="M 409.5,128.5 C 388.833,129.167 368.167,129.833 347.5,130.5C 346.957,130.44 346.624,130.107 346.5,129.5C 367.489,128.5 388.489,128.167 409.5,128.5 Z"/></g>
<g><path style="opacity:1" fill="#e9f3f9" d="M 459.5,42.5 C 466.655,41.3448 473.988,41.1782 481.5,42C 482,42.5 482.5,43 483,43.5C 483.185,56.5453 483.685,69.5453 484.5,82.5C 483.596,100.273 483.263,117.94 483.5,135.5C 484.822,135.33 485.989,135.663 487,136.5C 487.692,135.975 488.192,135.308 488.5,134.5C 492.275,133.847 495.942,132.847 499.5,131.5C 500.167,131.833 500.833,132.167 501.5,132.5C 500.359,133.425 500.359,134.259 501.5,135C 495.404,136.298 495.237,137.465 501,138.5C 506.458,137.428 511.958,136.594 517.5,136C 516.692,135.692 516.025,135.192 515.5,134.5C 516.811,133.742 517.311,132.742 517,131.5C 516.586,131.957 516.086,132.291 515.5,132.5C 512.17,131.906 508.836,131.24 505.5,130.5C 506.59,129.391 506.59,128.391 505.5,127.5C 504.575,128.641 503.741,128.641 503,127.5C 502.683,129.301 502.016,129.634 501,128.5C 498.651,126.496 498.151,124.163 499.5,121.5C 497.914,119.827 497.247,117.827 497.5,115.5C 499.592,119.428 502.592,122.594 506.5,125C 517.233,130.088 528.566,133.088 540.5,134C 543.617,135.445 545.617,137.778 546.5,141C 544.49,148.608 539.49,151.775 531.5,150.5C 523.878,150.885 518.544,147.552 515.5,140.5C 508.522,139.663 501.522,139.663 494.5,140.5C 494.783,146.412 496.783,151.746 500.5,156.5C 499.178,156.67 498.011,156.337 497,155.5C 494.791,151.782 493.291,147.782 492.5,143.5C 492.887,141.726 493.553,140.059 494.5,138.5C 493.311,137.571 491.978,137.238 490.5,137.5C 492.251,141.209 491.751,144.543 489,147.5C 488.13,146.892 487.63,146.059 487.5,145C 488.645,142.801 488.645,140.635 487.5,138.5C 486.15,140.735 484.65,142.068 483,142.5C 482.667,149.833 482.333,157.167 482,164.5C 481.617,165.056 481.117,165.389 480.5,165.5C 480.5,124.5 480.5,83.5 480.5,42.5C 473.5,42.5 466.5,42.5 459.5,42.5 Z"/></g>
<g><path style="opacity:1" fill="#0b6bbc" d="M 423.5,43.5 C 429.833,43.5 436.167,43.5 442.5,43.5C 442.5,83.8333 442.5,124.167 442.5,164.5C 436.167,164.5 429.833,164.5 423.5,164.5C 423.5,124.167 423.5,83.8333 423.5,43.5 Z"/></g>
<g><path style="opacity:1" fill="#0c6bbc" d="M 460.5,43.5 C 466.833,43.5 473.167,43.5 479.5,43.5C 479.5,83.8333 479.5,124.167 479.5,164.5C 473.167,164.5 466.833,164.5 460.5,164.5C 460.5,124.167 460.5,83.8333 460.5,43.5 Z"/></g>
<g><path style="opacity:1" fill="#166ab8" d="M 91.5,121.5 C 111.503,121.333 131.503,121.5 151.5,122C 164.949,127.064 169.782,136.564 166,150.5C 159.412,161.875 149.579,166.375 136.5,164C 133.572,160.743 132.738,156.909 134,152.5C 134.5,152 135,151.5 135.5,151C 140.76,151.072 145.76,150.072 150.5,148C 153.167,144.333 153.167,140.667 150.5,137C 131.565,135.372 112.565,135.038 93.5,136C 87.7213,139.465 87.0546,143.799 91.5,149C 101.167,149.333 110.833,149.667 120.5,150C 122.523,153.183 123.023,156.683 122,160.5C 120.681,162.487 118.848,163.654 116.5,164C 106.758,164.92 97.0916,164.587 87.5,163C 74.6331,155.061 71.4665,144.228 78,130.5C 81.5282,125.834 86.0282,122.834 91.5,121.5 Z"/></g>
<g><path style="opacity:1" fill="#3970af" d="M 580.5,78.5 C 587.755,78.1868 594.921,78.5201 602,79.5C 602.5,108.165 602.667,136.831 602.5,165.5C 594.833,165.5 587.167,165.5 579.5,165.5C 579.175,136.426 579.509,107.426 580.5,78.5 Z"/></g>
<g><path style="opacity:1" fill="#0c6bbc" d="M 581.5,79.5 C 587.789,80.3721 594.122,80.7054 600.5,80.5C 600.5,108.5 600.5,136.5 600.5,164.5C 594.167,164.5 587.833,164.5 581.5,164.5C 581.5,136.167 581.5,107.833 581.5,79.5 Z"/></g>
<g><path style="opacity:1" fill="#4779b2" d="M 180.5,149.5 C 179.876,154.717 178.543,159.717 176.5,164.5C 187.833,164.5 199.167,164.5 210.5,164.5C 197.994,165.825 185.327,165.825 172.5,164.5C 176.149,159.896 178.816,154.896 180.5,149.5 Z"/></g>
</svg>
