<?xml version="1.0" encoding="UTF-8"?>
<svg version="1.1" xmlns="http://www.w3.org/2000/svg" width="1313" height="370">
<path d="M0 0 C433.29 0 866.58 0 1313 0 C1313 122.1 1313 244.2 1313 370 C879.71 370 446.42 370 0 370 C0 247.9 0 125.8 0 0 Z " fill="#2A2A2D" transform="translate(0,0)"/>
<path d="M0 0 C46.2 0 92.4 0 140 0 C140 13.86 140 27.72 140 42 C96.44 42.495 96.44 42.495 52 43 C51.67 60.49 51.34 77.98 51 96 C78.39 96 105.78 96 134 96 C134 109.86 134 123.72 134 138 C106.94 138 79.88 138 52 138 C52 158.79 52 179.58 52 201 C81.37 201 110.74 201 141 201 C141 215.19 141 229.38 141 244 C94.47 244 47.94 244 0 244 C0 163.48 0 82.96 0 0 Z " fill="#FEFEFE" transform="translate(338,42)"/>
<path d="M0 0 C-2.56283258 8.18135016 -5.82307957 16.03570991 -9.125 23.9375 C-9.68126072 25.27658011 -10.23725229 26.61577206 -10.79296875 27.95507812 C-14.81527446 37.63054893 -14.81527446 37.63054893 -16 40 C-20.15950118 39.40391279 -23.90615654 38.45443627 -27.859375 37.0390625 C-59.78420304 25.66242734 -59.78420304 25.66242734 -92.1875 31.3125 C-98.02228574 34.33171387 -100.91338924 37.775534 -103 44 C-103.31482788 47.18368911 -103.31482788 47.18368911 -103.25 50.5 C-103.25515625 51.6034375 -103.2603125 52.706875 -103.265625 53.84375 C-103.00134716 56.9839926 -102.23722833 59.13277244 -101 62 C-101 62.99 -101 63.98 -101 65 C-100.40123047 65.27408691 -99.80246094 65.54817383 -99.18554688 65.83056641 C-97.08386664 66.95512498 -95.73280432 68.06695877 -94.03125 69.7109375 C-89.09966494 74.03261846 -83.32827879 76.70509003 -77.5 79.625 C-76.29922935 80.23682788 -75.09904198 80.84980174 -73.89941406 81.46386719 C-70.27112642 83.31889875 -66.63597245 85.16007428 -63 87 C-10.39754637 113.64750269 -10.39754637 113.64750269 -1.81298828 138.33520508 C3.98670746 157.3453189 2.44988305 178.16544421 -5.5625 196.1875 C-14.15144307 212.28092363 -29.28250168 222.67487452 -46 229 C-50.63763693 230.36088826 -55.2263675 231.27097244 -60 232 C-60.93207275 232.16701416 -61.86414551 232.33402832 -62.82446289 232.50610352 C-70.92122459 233.89263183 -78.73252072 234.28056535 -86.9375 234.1875 C-88.17459717 234.1774292 -89.41169434 234.1673584 -90.6862793 234.15698242 C-94.12463553 234.1199669 -97.56205404 234.06388624 -101 234 C-101.74991211 233.99129883 -102.49982422 233.98259766 -103.27246094 233.97363281 C-111.03198262 233.85450834 -118.53978063 232.46483062 -126.125 230.9375 C-127.00067627 230.77032471 -127.87635254 230.60314941 -128.77856445 230.4309082 C-139.21959182 228.16972856 -147.70654221 224.11738312 -158 220 C-158 204.16 -158 188.32 -158 172 C-151.5791852 173.92624444 -145.48697754 175.88410441 -139.3125 178.375 C-121.44215379 185.41291505 -104.92368053 190.21622455 -85.625 190.375 C-84.53147217 190.38893799 -83.43794434 190.40287598 -82.3112793 190.41723633 C-71.92994085 190.35643439 -62.54198627 188.61149766 -55 181 C-50.71421186 175.69724518 -50.31619188 169.90031923 -50.5625 163.25 C-51.50969935 156.21366194 -54.36977822 150.99395483 -59.8125 146.4375 C-70.14912482 139.20186262 -81.50533253 133.72323553 -92.79345703 128.16674805 C-117.29982179 116.09772364 -142.72695825 103.0589728 -152.5 75.6875 C-153.92231916 70.76110363 -154.81901104 66.12047941 -155 61 C-155.0515625 59.74316406 -155.103125 58.48632812 -155.15625 57.19140625 C-155.74249922 35.9984968 -150.39444754 19.04866103 -135.875 3.3125 C-100.39483556 -30.64882178 -39.63630363 -17.71785855 0 0 Z " fill="#FDFDFD" transform="translate(292,55)"/>
<path d="M0 0 C0.90927246 0.28955566 1.81854492 0.57911133 2.75537109 0.87744141 C5.43110139 1.7434395 8.09170774 2.64450677 10.75 3.5625 C11.56670166 3.83094727 12.38340332 4.09939453 13.22485352 4.37597656 C15.484375 5.19140625 15.484375 5.19140625 19 7 C20.46693603 10.33773753 19.95695202 12.59081225 18.73657227 15.87231445 C18.10997348 17.37498563 17.46904769 18.87173646 16.81640625 20.36328125 C16.48205063 21.15526413 16.14769501 21.94724701 15.8032074 22.76322937 C14.73521759 25.28506949 13.64919146 27.79867007 12.5625 30.3125 C11.83408273 32.02357661 11.10685497 33.73516012 10.38085938 35.44726562 C8.6009756 39.63751176 6.8048792 43.82046291 5 48 C-0.23157841 47.32278821 -4.83598843 46.12019713 -9.75 44.25 C-16.09569809 41.92752531 -22.4679833 39.91953297 -29 38.1875 C-30.1461377 37.8776416 -30.1461377 37.8776416 -31.31542969 37.56152344 C-43.50633706 34.4091593 -59.18047058 32.16559128 -70.63671875 38.4453125 C-77.32868786 42.80241939 -81.31328952 47.02231532 -83 55 C-83.99568343 62.3111612 -82.24460593 67.99348217 -78 74 C-69.60636273 82.67816734 -57.07246429 88.07368984 -46.3203125 93.33203125 C-45.57101974 93.69887024 -44.82172699 94.06570923 -44.04972839 94.44366455 C-40.97674081 95.94385453 -37.90186055 97.43969576 -34.81884766 98.91918945 C-13.00996442 109.41144364 10.79859872 123.30412514 19.29296875 147.4296875 C24.5692495 166.61086284 23.36065228 188.27814009 14 206 C4.42776716 221.70444451 -11.13150465 233.36742713 -29 238 C-45.02274435 241.86755898 -60.64022725 242.57013508 -77.07373047 242.08544922 C-79.37269979 242.01831763 -81.67276147 241.9884864 -83.97265625 241.97265625 C-91.7415016 241.7319857 -99.24453271 240.0355233 -106.8125 238.375 C-107.85615723 238.15183105 -108.89981445 237.92866211 -109.97509766 237.69873047 C-119.70817635 235.43302689 -127.41546773 231.94657211 -137 228 C-137 212.16 -137 196.32 -137 180 C-126.94323873 183.35225376 -126.94323873 183.35225376 -122.50390625 185.0859375 C-98.2595869 194.44834984 -70.49558145 204.74313602 -44.52734375 195.8046875 C-37.94602746 192.87788099 -33.81883297 189.71082571 -31 183 C-29.04428247 177.1328474 -28.71145729 170.17618645 -31.05859375 164.390625 C-37.24944182 154.6597527 -46.33460906 149.3988974 -56.4375 144.375 C-58.23120375 143.46216803 -60.02490127 142.54932347 -61.81814575 141.6355896 C-64.26967356 140.38928854 -66.72600005 139.15260946 -69.18231201 137.91577148 C-74.29825341 135.33830314 -79.40166939 132.73708615 -84.5 130.125 C-85.99164673 129.37742432 -85.99164673 129.37742432 -87.51342773 128.61474609 C-105.70950729 119.29326725 -123.72178098 104.9780631 -131.00390625 85.28515625 C-137.01041657 65.98887913 -135.82437088 44.25315744 -126.8125 26.1875 C-117.54134735 10.11092679 -102.34014011 -0.40045361 -84.57421875 -5.29296875 C-55.96749035 -12.49203356 -27.75490845 -8.9566813 0 0 Z " fill="#FDFDFD" transform="translate(1039,47)"/>
<path d="M0 0 C17.16 0 34.32 0 52 0 C52 66.66 52 133.32 52 202 C84.67 202 117.34 202 151 202 C151 216.19 151 230.38 151 245 C101.17 245 51.34 245 0 245 C0 164.15 0 83.3 0 0 Z " fill="#FCFCFC" transform="translate(530,41)"/>
<path d="M0 0 C17.16 0 34.32 0 52 0 C52 66.33 52 132.66 52 201 C84.67 201 117.34 201 151 201 C151 215.19 151 229.38 151 244 C101.17 244 51.34 244 0 244 C0 163.48 0 82.96 0 0 Z " fill="#FDFDFD" transform="translate(723,42)"/>
<path d="M0 0 C26.73 0 53.46 0 81 0 C81 98.34 81 196.68 81 298 C54.27 298 27.54 298 0 298 C0 286.45 0 274.9 0 263 C12.21 263 24.42 263 37 263 C37 187.76 37 112.52 37 35 C24.79 35 12.58 35 0 35 C0 23.45 0 11.9 0 0 Z " fill="#38ABD3" transform="translate(1196,42)"/>
<path d="M0 0 C26.73 0 53.46 0 81 0 C81 11.55 81 23.1 81 35 C68.79 35 56.58 35 44 35 C44 110.24 44 185.48 44 263 C56.21 263 68.42 263 81 263 C81 274.55 81 286.1 81 298 C54.27 298 27.54 298 0 298 C0 199.66 0 101.32 0 0 Z " fill="#38ABD3" transform="translate(29,42)"/>
<path d="M0 0 C17.16 0 34.32 0 52 0 C52 80.52 52 161.04 52 244 C34.84 244 17.68 244 0 244 C0 163.48 0 82.96 0 0 Z " fill="#FDFDFD" transform="translate(1105,42)"/>
</svg>
