<?xml version="1.0" encoding="UTF-8"?>
<svg version="1.1" xmlns="http://www.w3.org/2000/svg" width="615" height="192">
<path d="M0 0 C202.95 0 405.9 0 615 0 C615 63.36 615 126.72 615 192 C412.05 192 209.1 192 0 192 C0 128.64 0 65.28 0 0 Z " fill="#000001" transform="translate(0,0)"/>
<path d="M0 0 C1.1007486 -0.00287018 2.20149719 -0.00574036 3.33560181 -0.00869751 C5.65700802 -0.01073298 7.97843158 -0.00523942 10.29980469 0.00732422 C13.83307731 0.02335364 17.36520071 0.00747293 20.8984375 -0.01171875 C23.16146084 -0.00973563 25.42448346 -0.00589053 27.6875 0 C29.25822769 -0.00910904 29.25822769 -0.00910904 30.86068726 -0.0184021 C42.48734848 0.09178932 53.14918849 3.92007571 61.8671875 11.73828125 C64.44765854 14.40017492 66.43623404 17.30703074 68.4765625 20.3984375 C64.07319457 21.04811474 59.82772443 21.45706306 55.375 21.46875 C41.43375741 21.55150223 31.02329136 23.10385772 20.3515625 32.8359375 C18.80109806 34.58283962 18.80109806 34.58283962 17.4765625 36.3984375 C17.04730469 36.945 16.61804688 37.4915625 16.17578125 38.0546875 C11.43637711 45.48138265 12.52803266 55.91489888 14.27734375 64.18359375 C15.7617336 69.26719913 17.23796446 73.20403545 20.4765625 77.3984375 C20.4765625 78.0584375 20.4765625 78.7184375 20.4765625 79.3984375 C20.9921875 79.6253125 21.5078125 79.8521875 22.0390625 80.0859375 C24.80480378 81.5751828 27.25982039 83.32919159 29.79296875 85.1796875 C31.32744198 86.29048947 32.90038402 87.34765184 34.4765625 88.3984375 C25.69692868 88.51437479 16.91755902 88.60317407 8.13732624 88.65749836 C4.06010683 88.68357379 -0.01658823 88.71893287 -4.09350586 88.77563477 C-8.02928113 88.83003003 -11.96455262 88.8598735 -15.90067482 88.87282372 C-17.4010187 88.88205031 -18.90133552 88.9000684 -20.40146446 88.92708778 C-22.50611946 88.96348202 -24.60870315 88.96837911 -26.71362305 88.96606445 C-27.91053268 88.97716751 -29.10744232 88.98827057 -30.34062195 88.99971008 C-34.52772538 88.2087153 -35.98532109 86.77410375 -38.5234375 83.3984375 C-39.15162659 80.73847961 -39.15162659 80.73847961 -39.15454102 77.84887695 C-39.16707413 76.76036942 -39.17960724 75.67186188 -39.19252014 74.55036926 C-39.17926193 73.38261459 -39.16600372 72.21485992 -39.15234375 71.01171875 C-39.15475571 69.79953171 -39.15716766 68.58734467 -39.15965271 67.33842468 C-39.15867373 64.77384166 -39.14526838 62.20923765 -39.12036133 59.64477539 C-39.08621159 55.74225941 -39.0996635 51.84202843 -39.11914062 47.93945312 C-39.1122374 45.44269878 -39.10256072 42.94595025 -39.08984375 40.44921875 C-39.09480362 39.29158524 -39.09976349 38.13395172 -39.10487366 36.9412384 C-38.94949199 26.10646722 -36.15745935 18.2496488 -28.66796875 10.37109375 C-25.54907188 7.50216312 -22.31318633 5.28299499 -18.5234375 3.3984375 C-17.08085571 2.63515137 -17.08085571 2.63515137 -15.60913086 1.85644531 C-10.54533135 -0.28808528 -5.41921565 -0.03130634 0 0 Z " fill="#1069B7" transform="translate(49.5234375,87.6015625)"/>
<path d="M0 0 C6.78210971 3.96689436 11.73435503 9.45863873 16 16 C16.50917969 16.77601562 17.01835937 17.55203125 17.54296875 18.3515625 C22.31746344 26.99112432 21.67757362 36.41717312 21 46 C19.29346664 47.70653336 17.05671088 47.23067348 14.71875 47.31640625 C13.58139404 47.35838135 12.44403809 47.40035645 11.2722168 47.44360352 C10.02738525 47.48283936 8.78255371 47.5220752 7.5 47.5625 C5.59118042 47.62618774 5.59118042 47.62618774 3.64379883 47.69116211 C-11.56757607 48.16539272 -26.7832938 48.09399277 -42 48 C-41.42192847 49.76215535 -40.82759224 51.51897991 -40.2265625 53.2734375 C-39.89736816 54.25231934 -39.56817383 55.23120117 -39.22900391 56.23974609 C-37.14059103 60.93017041 -33.52276789 63.73861605 -29 66 C-19.58733274 66.81535166 -11.7801858 67.18524343 -3.78515625 61.5078125 C-1.915253 59.97120358 -1.915253 59.97120358 0 58 C6.24062098 57.72293226 12.2390515 59.83453709 18 62 C17.33956211 67.61372208 15.10080121 71.26192706 10.828125 74.796875 C-1.46470451 83.73017346 -13.7555853 87.48613892 -29 86 C-40.81791552 82.96408565 -52.85830404 76.21034739 -59.47265625 65.6484375 C-66.12378688 53.1218183 -67.52963433 36.91892745 -63.375 23.3125 C-61.34120539 18.1887648 -58.65976428 14.09608654 -55 10 C-54.52175781 9.40703125 -54.04351562 8.8140625 -53.55078125 8.203125 C-39.82158925 -7.42809612 -17.79161713 -8.20033695 0 0 Z " fill="#1168B5" transform="translate(390,82)"/>
<path d="M0 0 C4.93496577 2.74682057 9.34063693 6.66680636 11.6328125 11.90234375 C11.83435061 14.60695929 11.74647374 17.18299862 11.6328125 19.90234375 C8.86365177 20.31846628 6.09457754 20.71082128 3.3203125 21.08984375 C2.53462891 21.21037109 1.74894531 21.33089844 0.93945312 21.45507812 C0.18212891 21.55498047 -0.57519531 21.65488281 -1.35546875 21.7578125 C-2.05196533 21.85731201 -2.74846191 21.95681152 -3.46606445 22.05932617 C-5.3671875 21.90234375 -5.3671875 21.90234375 -7.11791992 20.53637695 C-8.3671875 18.90234375 -8.3671875 18.90234375 -8.3671875 16.90234375 C-9.0890625 16.61359375 -9.8109375 16.32484375 -10.5546875 16.02734375 C-13.3671875 14.90234375 -13.3671875 14.90234375 -15.5546875 13.71484375 C-20.45899222 12.29804461 -25.89454756 12.88748631 -30.61328125 14.82421875 C-32.53122711 15.79060194 -32.53122711 15.79060194 -33.3671875 17.90234375 C-33.7354127 21.29001563 -33.90585483 23.16551383 -31.859375 25.96484375 C-28.55867764 28.53090314 -25.18953117 29.21866872 -21.1796875 30.02734375 C-20.41591797 30.19564697 -19.65214844 30.3639502 -18.86523438 30.53735352 C-15.77345784 31.21442095 -12.67839396 31.84461647 -9.56640625 32.421875 C0.15296872 34.26907415 6.79784501 39.13454633 12.9453125 46.77734375 C16.0198966 52.43907788 15.37549595 59.6999333 14.6328125 65.90234375 C10.82618251 74.73581115 4.99135645 80.20599916 -3.8359375 83.94921875 C-15.99291217 87.83066247 -29.77503665 87.22284375 -41.3671875 81.90234375 C-48.73010139 77.5548946 -54.60517035 73.1883952 -57.3671875 64.90234375 C-57.40672984 62.5693455 -57.41120482 60.23526186 -57.3671875 57.90234375 C-53.95116735 57.72787441 -50.53629113 57.62144752 -47.1171875 57.52734375 C-46.14910156 57.47707031 -45.18101562 57.42679688 -44.18359375 57.375 C-41.45788448 57.31860602 -39.03590451 57.33732454 -36.3671875 57.90234375 C-33.9453125 60.73828125 -33.9453125 60.73828125 -32.3671875 63.90234375 C-29.81045859 66.55418074 -28.59495915 66.87638542 -24.87109375 67.30078125 C-23.57042969 67.29304688 -22.26976562 67.2853125 -20.9296875 67.27734375 C-19.63160156 67.28507812 -18.33351563 67.2928125 -16.99609375 67.30078125 C-12.95152806 66.85670622 -10.264021 65.79917725 -7.3671875 62.90234375 C-6.95025897 59.48633782 -6.95025897 59.48633782 -7.3671875 55.90234375 C-10.33906456 52.94587643 -13.26576662 52.27136473 -17.3125 51.5078125 C-19.05273438 51.15686523 -19.05273438 51.15686523 -20.828125 50.79882812 C-23.2460659 50.33096429 -25.66532967 49.86987959 -28.0859375 49.41601562 C-38.50955079 47.29332616 -47.14366977 43.93424726 -53.25 34.84375 C-57.046961 28.24553456 -57.09844622 22.15163816 -55.2421875 14.90234375 C-51.89263031 4.79249305 -44.56678137 0.60170339 -35.3671875 -4.09765625 C-24.00445553 -7.88523357 -10.4878494 -4.86317769 0 0 Z " fill="#1469B6" transform="translate(302.3671875,82.09765625)"/>
<path d="M0 0 C4.98951073 4.87840827 6.75271016 9.07588441 7 16 C0.73492387 17.38587607 -6.57282076 18.82273546 -12.453125 15.6953125 C-14.5625 14.0625 -14.5625 14.0625 -16.37890625 12.41015625 C-19.70579889 9.51616048 -23.23940053 9.86546969 -27.4375 9.875 C-28.57058594 9.87242188 -29.70367188 9.86984375 -30.87109375 9.8671875 C-34.53537188 9.99438293 -34.53537188 9.99438293 -38 11 C-39.19334591 14.58003773 -39.33543224 17.24315896 -39 21 C-36.12770743 23.78983241 -33.34858244 24.62289108 -29.4921875 25.46484375 C-28.42226563 25.70783203 -27.35234375 25.95082031 -26.25 26.20117188 C-25.13625 26.44416016 -24.0225 26.68714844 -22.875 26.9375 C0.31032044 32.02127889 0.31032044 32.02127889 7 41 C11.05125923 47.74892126 10.85740223 54.33284542 10 62 C8.89160897 65.29438445 7.37233261 67.48336492 5 70 C4.12794922 70.93585938 4.12794922 70.93585938 3.23828125 71.890625 C-5.78469012 80.60245942 -16.66424596 82.29181217 -28.81665039 82.31689453 C-39.82362177 82.11313161 -49.69426706 77.44535749 -57.375 69.5625 C-60.70903786 64.30497876 -62.17454073 60.20492279 -62 54 C-58.93601549 53.86469156 -55.87802874 53.7657593 -52.8125 53.6875 C-51.94818359 53.64560547 -51.08386719 53.60371094 -50.19335938 53.56054688 C-45.59055404 53.47237053 -43.65021205 53.49989964 -39.88671875 56.39453125 C-38 59 -38 59 -38 61 C-31.39767401 63.67661864 -26.1383831 64.59573622 -19 64 C-15.25969815 62.39701349 -14.26841535 61.40262302 -12 58 C-11.49662795 53.90627883 -11.49662795 53.90627883 -13.25854492 50.37451172 C-15.29316597 48.76860726 -16.6306945 48.42458129 -19.17578125 48.0078125 C-19.99723633 47.8629541 -20.81869141 47.7180957 -21.66503906 47.56884766 C-22.53870117 47.42237793 -23.41236328 47.2759082 -24.3125 47.125 C-36.83644762 44.80633464 -50.00102965 42.22919317 -58.64453125 32.06640625 C-62.65856201 25.94703371 -61.6137833 17.0236339 -61 10 C-58.56792807 2.88199638 -52.63889856 -1.69299245 -46.1875 -5.1875 C-30.65041592 -12.4147312 -13.54744387 -10.17206379 0 0 Z " fill="#1268B6" transform="translate(557,86)"/>
<path d="M0 0 C8.70165109 6.45345499 14.2215922 14.5234506 16.0625 25.25 C16.28096269 29.26861203 16.24763434 33.28850494 16.25 37.3125 C16.26224609 38.38177734 16.27449219 39.45105469 16.28710938 40.55273438 C16.32076982 59.12207916 16.32076982 59.12207916 12.03125 65.06347656 C7.99925777 68.03309189 5.13816501 67.89453168 0.26171875 67.73828125 C-0.9928437 67.72766914 -0.9928437 67.72766914 -2.27275085 67.71684265 C-4.93276052 67.68894985 -7.59063139 67.62622481 -10.25 67.5625 C-12.05791221 67.53741034 -13.86585757 67.51459833 -15.67382812 67.49414062 C-20.09587073 67.43914042 -24.51632331 67.35290643 -28.9375 67.25 C-27.61283767 63.85427772 -26.12096764 60.78717442 -24.3125 57.625 C-20.22250204 49.45710467 -21.29560745 41.35856808 -23.8984375 32.8203125 C-27.53666777 23.82047972 -35.16789101 17.07538229 -43.9375 13.25 C-53.74235171 11.20875602 -63.95327506 10.78815681 -73.9375 10.25 C-70.41826065 2.38246972 -62.61649637 -1.59612649 -54.9375 -4.75 C-38.93699674 -10.84340071 -14.60977222 -8.83830848 0 0 Z " fill="#106AB8" transform="translate(201.9375,97.75)"/>
<path d="M0 0 C7.90334493 4.4820983 13.57045771 11.63863752 17 20 C17.41591337 22.97009824 17.41999722 25.88018488 17.375 28.875 C17.38660156 29.63941406 17.39820312 30.40382812 17.41015625 31.19140625 C17.3618008 40.68519378 14.10850264 46.85847803 7.5625 53.65625 C0.00762566 60.56619605 -6.7941953 62.80711174 -16.86108398 62.57299805 C-26.68755004 62.01353502 -33.36762691 58.1479147 -40 51 C-47.52486024 41.16860651 -48.23506584 32.12871213 -47 20 C-44.25331604 10.3695106 -37.06501709 4.39735759 -29 -1 C-19.28514471 -6.39714183 -9.76818513 -4.34441383 0 0 Z " fill="#0D6BBA" transform="translate(81,18)"/>
<path d="M0 0 C7.26 0 14.52 0 22 0 C22 40.26 22 80.52 22 122 C14.74 122 7.48 122 0 122 C0 81.74 0 41.48 0 0 Z " fill="#106AB8" transform="translate(422,43)"/>
<path d="M0 0 C1.27214859 -0.01929062 2.54429718 -0.03858124 3.85499573 -0.05845642 C5.25219706 -0.07326895 6.64940975 -0.08704154 8.04663086 -0.09985352 C8.75067991 -0.10642534 9.45472897 -0.11299717 10.18011284 -0.11976814 C13.91220973 -0.15237816 17.64427803 -0.17681615 21.37646484 -0.19628906 C24.45436699 -0.21404713 27.53134334 -0.24877278 30.60888672 -0.29882812 C34.33309484 -0.35932562 38.05644997 -0.38980561 41.78112602 -0.39946175 C43.1944515 -0.40797388 44.60775682 -0.42668676 46.02079964 -0.45620537 C54.98377351 -0.63324726 61.1995451 -0.01394509 67.94897461 6.20874023 C72.94606 11.58060703 73.31298239 16.0144263 73.21850586 23.13452148 C72.74560023 28.52838718 71.0651184 32.15345899 67.18334961 35.92358398 C60.78904698 41.07175283 54.20207279 43.84289345 45.93334961 43.57202148 C42.95153138 43.02613744 41.66014047 41.63289186 39.94897461 39.20874023 C38.56772443 36.44623988 38.75818155 34.26142924 38.94897461 31.20874023 C41.83118521 28.32652963 45.19766474 28.23983413 49.07397461 27.58374023 C49.82807617 27.44967773 50.58217773 27.31561523 51.35913086 27.17749023 C53.22117379 26.84750794 55.08492636 26.5271995 56.94897461 26.20874023 C56.94897461 22.90874023 56.94897461 19.60874023 56.94897461 16.20874023 C46.15510352 15.0539171 35.40201858 14.98878507 24.55517578 14.96850586 C21.36262213 14.95866672 18.17067835 14.92750242 14.97827148 14.89624023 C12.94637423 14.88972105 10.91447243 14.88446634 8.88256836 14.88061523 C7.92950302 14.86826843 6.97643768 14.85592163 5.99449158 14.84320068 C5.11249588 14.84620178 4.23050018 14.84920288 3.32177734 14.85229492 C2.54744858 14.84864929 1.77311981 14.84500366 0.97532654 14.84124756 C-1.61008557 15.31012959 -2.49562957 16.11898455 -4.05102539 18.20874023 C-4.30367944 21.30375231 -4.45037552 23.41003997 -3.05102539 26.20874023 C-2.46200439 26.23379639 -1.8729834 26.25885254 -1.26611328 26.28466797 C1.45156132 26.40206384 4.16900803 26.52412738 6.88647461 26.64624023 C7.81266602 26.68555664 8.73885742 26.72487305 9.69311523 26.76538086 C15.48053715 27.02936853 21.21817496 27.3355306 26.94897461 28.20874023 C28.10613972 30.52307045 28.18107897 32.06934835 28.26147461 34.64624023 C28.31754883 35.81993164 28.31754883 35.81993164 28.37475586 37.01733398 C27.94897461 39.20874023 27.94897461 39.20874023 26.33007812 40.81860352 C21.85782536 43.42959575 16.6428294 42.68757718 11.58666992 42.65478516 C9.58758935 42.64629804 7.58846742 42.67641216 5.58959961 42.70678711 C4.31858398 42.70614258 3.04756836 42.70549805 1.73803711 42.70483398 C0.00094482 42.70761353 0.00094482 42.70761353 -1.77124023 42.71044922 C-7.47002622 41.83870549 -11.21341292 38.42255711 -14.86352539 34.14624023 C-15.73944336 33.13883789 -15.73944336 33.13883789 -16.63305664 32.11108398 C-20.24963752 27.25908705 -19.5628207 20.9627818 -19.05102539 15.20874023 C-17.31430944 8.90006725 -13.27882053 4.93000327 -8.05102539 1.20874023 C-5.30728673 -0.16312909 -3.07109423 0.04341309 0 0 Z " fill="#1867B1" transform="translate(94.051025390625,121.791259765625)"/>
<path d="M0 0 C6.6 0 13.2 0 20 0 C20 40.26 20 80.52 20 122 C13.4 122 6.8 122 0 122 C0 81.74 0 41.48 0 0 Z " fill="#0C69B9" transform="translate(460,43)"/>
<path d="M0 0 C7.21178553 3.37267582 11.54016289 8.78494841 14.35546875 16.1015625 C17.04539971 24.17135537 15.44249551 31.78619147 11.98046875 39.359375 C8.56663957 45.12021173 3.76924032 49.12670063 -2.64453125 51.1015625 C-10.07796675 51.87774452 -18.27027123 52.72930214 -24.83203125 48.6015625 C-31.60232388 43.03837631 -36.03245788 36.59733707 -37.015625 27.76953125 C-37.16465024 19.95885543 -36.72420394 14.24357059 -31.64453125 8.1015625 C-29.1385992 5.51984622 -26.50536133 3.27815281 -23.64453125 1.1015625 C-22.88140625 0.4621875 -22.11828125 -0.1771875 -21.33203125 -0.8359375 C-14.58464092 -3.50351042 -6.7236717 -2.2875449 0 0 Z " fill="#106AB8" transform="translate(180.64453125,33.8984375)"/>
<path d="M0 0 C2.05597098 -0.01360194 4.11196837 -0.02324388 6.16796875 -0.03125 C7.88536255 -0.03995117 7.88536255 -0.03995117 9.63745117 -0.04882812 C13.82546596 0.01198673 17.85219556 0.43758584 22 1 C22.86584004 11.76099701 23.13562256 22.4238283 23.09765625 33.21484375 C23.09578493 34.80766251 23.09436441 36.40048185 23.09336853 37.99330139 C23.08959946 42.1310289 23.07981904 46.2687198 23.06866455 50.40643311 C23.05832788 54.65050766 23.05384499 58.89458829 23.04882812 63.13867188 C23.03819012 71.42579971 23.02064077 79.71289104 23 88 C15.08 88 7.16 88 -1 88 C-1.02300212 80.66055434 -1.04116706 73.32112982 -1.05181217 65.98165512 C-1.05693271 62.57011276 -1.06382067 59.15859723 -1.07543945 55.74707031 C-1.13399112 37.13452734 -0.81706684 18.59414024 0 0 Z " fill="#0F6ABB" transform="translate(580,78)"/>
<path d="M0 0 C4.66153039 1.67111467 7.6612566 3.59236821 10 8 C10.73499904 13.40749297 10.98423615 18.21379366 8.3125 23.0625 C3.57943327 27.02804239 0.42382175 28.57242139 -5.78515625 28.35546875 C-10.05819935 27.66967171 -12.80349234 25.31929962 -15.63671875 22.1953125 C-18.1559029 18.138632 -17.60721394 13.60414966 -17 9 C-13.02568776 1.05137551 -8.57859426 -1.08910849 0 0 Z " fill="#1368B8" transform="translate(594,42)"/>
<path d="M0 0 C4.30466235 2.53885568 7.22018506 5.55875673 9.44140625 10.09375 C9.44140625 12.07375 9.44140625 14.05375 9.44140625 16.09375 C-3.75859375 16.09375 -16.95859375 16.09375 -30.55859375 16.09375 C-29.04988436 8.55020304 -25.54341805 4.55053405 -19.55859375 0.09375 C-13.54748526 -1.90995283 -6.00141349 -2.1256915 0 0 Z " fill="#000101" transform="translate(378.55859375,95.90625)"/>
<path d="M0 0 C2.05597098 -0.01360194 4.11196837 -0.02324388 6.16796875 -0.03125 C7.88536255 -0.03995117 7.88536255 -0.03995117 9.63745117 -0.04882812 C13.82546596 0.01198673 17.85219556 0.43758584 22 1 C22.86584004 11.76099701 23.13562256 22.4238283 23.09765625 33.21484375 C23.09578493 34.80766251 23.09436441 36.40048185 23.09336853 37.99330139 C23.08959946 42.1310289 23.07981904 46.2687198 23.06866455 50.40643311 C23.05832788 54.65050766 23.05384499 58.89458829 23.04882812 63.13867188 C23.03819012 71.42579971 23.02064077 79.71289104 23 88 C15.08 88 7.16 88 -1 88 C-1.02300212 80.66055434 -1.04116706 73.32112982 -1.05181217 65.98165512 C-1.05693271 62.57011276 -1.06382067 59.15859723 -1.07543945 55.74707031 C-1.13399112 37.13452734 -0.81706684 18.59414024 0 0 Z M1 1 C0.97744951 12.06535221 0.95908522 23.13068928 0.94818783 34.19605923 C0.94295887 39.33359566 0.93586099 44.47111563 0.92456055 49.60864258 C0.91373213 54.5623141 0.90772326 59.51596974 0.90512276 64.46965218 C0.90326843 66.36397616 0.89964766 68.25829924 0.89426994 70.1526165 C0.88706011 72.79634386 0.88600903 75.44000471 0.88647461 78.08374023 C0.88287933 78.87495773 0.87928406 79.66617523 0.87557983 80.48136902 C0.55145105 84.03515555 0.55145105 84.03515555 2 87 C8.27 87 14.54 87 21 87 C21 58.95 21 30.9 21 2 C14.4 1.67 7.8 1.34 1 1 Z " fill="#1E446A" transform="translate(580,78)"/>
<path d="M0 0 C5.06379056 2.38296026 8.42107341 6.09396121 11 11 C11.47362415 13.87592395 11.31430571 16.06648004 11 19 C7.04 19.495 7.04 19.495 3 20 C3.33 19.34 3.66 18.68 4 18 C5.98 18 7.96 18 10 18 C10 17.01 10 16.02 10 15 C9.34 15 8.68 15 8 15 C7.34 15.66 6.68 16.32 6 17 C5.01 16.67 4.02 16.34 3 16 C3 13.33333333 3 10.66666667 3 8 C3.99 7.67 4.98 7.34 6 7 C5.38125 6.773125 4.7625 6.54625 4.125 6.3125 C1.38589791 4.62070165 0.94975528 3.00755839 0 0 Z " fill="#1765AC" transform="translate(303,83)"/>
<path d="M0 0 C2.31 0.99 4.62 1.98 7 3 C7 3.33 7 3.66 7 4 C-15.44 4 -37.88 4 -61 4 C-61 3.67 -61 3.34 -61 3 C-40.87 3 -20.74 3 0 3 C0 2.01 0 1.02 0 0 Z " fill="#1967AA" transform="translate(77,172)"/>
<path d="M0 0 C1 4 1 4 -2 13 C14.335 13.495 14.335 13.495 31 14 C31 14.33 31 14.66 31 15 C18.46 15 5.92 15 -7 15 C-5.57148766 11.42871914 -4.10525515 8.10247728 -2.375 4.6875 C-1.70597656 3.36298828 -1.70597656 3.36298828 -1.0234375 2.01171875 C-0.68570313 1.34785156 -0.34796875 0.68398437 0 0 Z " fill="#1C4C77" transform="translate(180,150)"/>
<path d="M0 0 C0.66 0.33 1.32 0.66 2 1 C1.72510809 5.03174806 1.46508424 6.56894631 -1.5625 9.375 C-2.366875 9.91125 -3.17125 10.4475 -4 11 C-4 10.34 -4 9.68 -4 9 C-5.99983534 9.79117904 -5.99983534 9.79117904 -8 11 C-8.33 11.99 -8.66 12.98 -9 14 C-9.99 14.33 -10.98 14.66 -12 15 C-10.23188872 8.71338212 -5.3319351 3.5546234 0 0 Z " fill="#1466AC" transform="translate(157,35)"/>
<path d="M0 0 C1.98 0 3.96 0 6 0 C5.32592592 4.21296303 3.22536987 7.42592112 1 11 C0.01 11.495 0.01 11.495 -1 12 C-1.20086443 8.28400809 -1.1519437 7.22791555 1 4 C0.34 3.67 -0.32 3.34 -1 3 C-0.67 2.01 -0.34 1.02 0 0 Z " fill="#1266AE" transform="translate(91,57)"/>
<path d="M0 0 C0 0.33 0 0.66 0 1 C-2.97851562 1.34179688 -2.97851562 1.34179688 -5.95703125 1.68359375 C-8.19396393 1.97170735 -8.19396393 1.97170735 -11 3 C-11.1546875 4.36125 -11.1546875 4.36125 -11.3125 5.75 C-12.00414949 9.01961575 -12.82134921 10.53717737 -15 13 C-15.66 11.68 -16.32 10.36 -17 9 C-12.00693219 0.97542673 -9.21812824 -0.53181509 0 0 Z " fill="#1964AB" transform="translate(594,42)"/>
<path d="M0 0 C1.98 0.66 3.96 1.32 6 2 C2.13707629 4.57528248 -1.08946878 4.29454471 -5.5625 4.25 C-6.34302734 4.25773437 -7.12355469 4.26546875 -7.92773438 4.2734375 C-13.74664502 4.25335498 -13.74664502 4.25335498 -16 2 C-11.47907032 0.54393481 -8.48351204 1.72967159 -4 3 C-3.67 2.34 -3.34 1.68 -3 1 C-3 1.66 -3 2.32 -3 3 C-2.34 3 -1.68 3 -1 3 C-0.67 2.01 -0.34 1.02 0 0 Z " fill="#1663A3" transform="translate(175,81)"/>
<path d="M0 0 C2.64 0.33 5.28 0.66 8 1 C8 1.66 8 2.32 8 3 C10.97 3.495 10.97 3.495 14 4 C14 4.66 14 5.32 14 6 C14.66 6 15.32 6 16 6 C16 6.66 16 7.32 16 8 C9.98482543 6.43082402 4.91598962 4.88104443 0 1 C0 0.67 0 0.34 0 0 Z " fill="#165E9C" transform="translate(255,159)"/>
<path d="M0 0 C2.31282587 3.46923881 2.42478586 4.92205575 2 9 C0.625 10.875 0.625 10.875 -1 12 C-1.66 12 -2.32 12 -3 12 C-2.69106068 10.3743193 -2.3777305 8.74947252 -2.0625 7.125 C-1.88847656 6.22007813 -1.71445312 5.31515625 -1.53515625 4.3828125 C-1 2 -1 2 0 0 Z " fill="#1462A7" transform="translate(328,103)"/>
<path d="M0 0 C0.99 0.33 1.98 0.66 3 1 C1.35 2.98 -0.3 4.96 -2 7 C-2.99 6.67 -3.98 6.34 -5 6 C-5 5.34 -5 4.68 -5 4 C-5.66 3.67 -6.32 3.34 -7 3 C-6 2 -6 2 -3.4375 1.9375 C-2.2309375 1.9684375 -2.2309375 1.9684375 -1 2 C-0.67 1.34 -0.34 0.68 0 0 Z " fill="#1861A6" transform="translate(162,152)"/>
<path d="M0 0 C2.04119788 1.61594832 4.04072937 3.2856382 6 5 C6 5.66 6 6.32 6 7 C4.02 7.99 4.02 7.99 2 9 C2 8.34 2 7.68 2 7 C1.34 6.67 0.68 6.34 0 6 C-0.66 5.34 -1.32 4.68 -2 4 C-1.34 2.68 -0.68 1.36 0 0 Z " fill="#1462A8" transform="translate(396,87)"/>
<path d="M0 0 C0.33 0.99 0.66 1.98 1 3 C-0.65 3.66 -2.3 4.32 -4 5 C-3.67 5.99 -3.34 6.98 -3 8 C-4.65 8 -6.3 8 -8 8 C-6.48291727 4.46014029 -4.24676932 0 0 0 Z " fill="#155EA0" transform="translate(136,100)"/>
<path d="M0 0 C0.66 0.33 1.32 0.66 2 1 C-1.15032615 4.8704007 -4.27153863 8.66400825 -8 12 C-8.99 12 -9.98 12 -11 12 C-3.70159453 3.55353075 -3.70159453 3.55353075 0 0 Z " fill="#1863A4" transform="translate(342,85)"/>
<path d="M0 0 C3 1.8125 3 1.8125 6 4 C6 4.99 6 5.98 6 7 C4.02 7.99 4.02 7.99 2 9 C2 8.34 2 7.68 2 7 C1.34 7 0.68 7 0 7 C0 6.34 0 5.68 0 5 C0.66 4.67 1.32 4.34 2 4 C1.34 2.68 0.68 1.36 0 0 Z " fill="#1366AD" transform="translate(82,19)"/>
<path d="M0 0 C1.37095624 3.69037278 0.60010967 5.70883835 -0.9375 9.25 C-1.31777344 10.14203125 -1.69804687 11.0340625 -2.08984375 11.953125 C-2.39019531 12.62859375 -2.69054687 13.3040625 -3 14 C-3.99 14 -4.98 14 -6 14 C-4.16508812 9.25981099 -2.08058541 4.63586749 0 0 Z " fill="#2C5C8B" transform="translate(180,150)"/>
<path d="M0 0 C2.375 -0.125 2.375 -0.125 5 0 C5.66 0.66 6.32 1.32 7 2 C7.99 2.33 8.98 2.66 10 3 C7.59454362 4.20272819 6.05003047 4.10071472 3.375 4.0625 C2.14910156 4.04896484 2.14910156 4.04896484 0.8984375 4.03515625 C-0.04128906 4.01775391 -0.04128906 4.01775391 -1 4 C-0.34 3.67 0.32 3.34 1 3 C0.67 2.01 0.34 1.02 0 0 Z " fill="#1862AA" transform="translate(587,66)"/>
<path d="M0 0 C1.50433594 0.01353516 1.50433594 0.01353516 3.0390625 0.02734375 C3.80992187 0.03894531 4.58078125 0.05054687 5.375 0.0625 C5.375 0.3925 5.375 0.7225 5.375 1.0625 C3.065 1.0625 0.755 1.0625 -1.625 1.0625 C-1.625 1.7225 -1.625 2.3825 -1.625 3.0625 C-3.605 3.3925 -5.585 3.7225 -7.625 4.0625 C-7.625 3.0725 -7.625 2.0825 -7.625 1.0625 C-4.98041621 -0.25979189 -2.94738699 -0.03427194 0 0 Z " fill="#195C96" transform="translate(167.625,31.9375)"/>
<path d="M0 0 C0.33 0.99 0.66 1.98 1 3 C0.34 3.66 -0.32 4.32 -1 5 C-1 6.32 -1 7.64 -1 9 C-1.99 9.33 -2.98 9.66 -4 10 C-4.33 10.99 -4.66 11.98 -5 13 C-5.66 13 -6.32 13 -7 13 C-5.58832253 7.73829306 -3.25149768 4.27828642 0 0 Z " fill="#155EA0" transform="translate(42,24)"/>
<path d="M0 0 C-0.61875 0.165 -1.2375 0.33 -1.875 0.5 C-5.27756949 2.90181375 -5.22612026 6.00162134 -6 10 C-6.33 10 -6.66 10 -7 10 C-7 8.02 -7 6.04 -7 4 C-7.66 3.67 -8.32 3.34 -9 3 C-6.27596221 -1.08605669 -4.4643819 -1.38549783 0 0 Z " fill="#1B61A0" transform="translate(274,96)"/>
<path d="M0 0 C0.7425 0.0825 1.485 0.165 2.25 0.25 C2.58 0.91 2.91 1.57 3.25 2.25 C1.25 4.25 1.25 4.25 -0.6953125 4.4453125 C-2.71354167 4.38020833 -4.73177083 4.31510417 -6.75 4.25 C-3.42692308 0.31153846 -3.42692308 0.31153846 0 0 Z " fill="#155D9F" transform="translate(155.75,105.75)"/>
<path d="M0 0 C0.33 0.66 0.66 1.32 1 2 C1.99 2.33 2.98 2.66 4 3 C1.03 3.66 -1.94 4.32 -5 5 C-5 4.01 -5 3.02 -5 2 C-3.35 1.34 -1.7 0.68 0 0 Z " fill="#1A67AD" transform="translate(546,162)"/>
<path d="M0 0 C0.33 0.66 0.66 1.32 1 2 C3.31 2 5.62 2 8 2 C6.35 3.65 4.7 5.3 3 7 C0 3.375 0 3.375 0 0 Z " fill="#1A63A6" transform="translate(304,154)"/>
<path d="M0 0 C1.8125 0.9375 1.8125 0.9375 2.8125 3.9375 C-0.1575 3.9375 -3.1275 3.9375 -6.1875 3.9375 C-2.77921598 -0.07940617 -2.77921598 -0.07940617 0 0 Z " fill="#1364AA" transform="translate(372.1875,91.0625)"/>
<path d="M0 0 C2.64 0 5.28 0 8 0 C8.33 0.99 8.66 1.98 9 3 C6.36 3 3.72 3 1 3 C0.67 2.01 0.34 1.02 0 0 Z " fill="#106DC0" transform="translate(276,90)"/>
<path d="M0 0 C0.66 1.32 1.32 2.64 2 4 C1.01 4 0.02 4 -1 4 C-1 4.99 -1 5.98 -1 7 C-2.32 7.33 -3.64 7.66 -5 8 C-2.25 2.25 -2.25 2.25 0 0 Z " fill="#1C61A1" transform="translate(502,87)"/>
<path d="M0 0 C2.475 0.495 2.475 0.495 5 1 C4.01 1.495 4.01 1.495 3 2 C3.99 2.99 4.98 3.98 6 5 C5.67 5.66 5.34 6.32 5 7 C2.5 5.1875 2.5 5.1875 0 3 C0 2.01 0 1.02 0 0 Z " fill="#135EA3" transform="translate(579,62)"/>
<path d="M0 0 C2.4294516 3.6441774 2.16179575 5.71241272 2 10 C1.01 9.34 0.02 8.68 -1 8 C-0.67 5.36 -0.34 2.72 0 0 Z " fill="#1761A4" transform="translate(165,133)"/>
<path d="M0 0 C2.97 0.33 5.94 0.66 9 1 C8.67 1.66 8.34 2.32 8 3 C5.69 3 3.38 3 1 3 C0.67 2.01 0.34 1.02 0 0 Z " fill="#1D61A2" transform="translate(281,113)"/>
<path d="M0 0 C2.50298434 2.93828597 3.46930939 5.17902761 4 9 C2.35 7.68 0.7 6.36 -1 5 C-0.67 3.35 -0.34 1.7 0 0 Z " fill="#165FA2" transform="translate(213,111)"/>
<path d="M0 0 C1.65 1.65 3.3 3.3 5 5 C2.69 4.67 0.38 4.34 -2 4 C-2 3.34 -2 2.68 -2 2 C-1.34 2 -0.68 2 0 2 C0 1.34 0 0.68 0 0 Z " fill="#1767AB" transform="translate(556,120)"/>
<path d="M0 0 C3.3 0.33 6.6 0.66 10 1 C10 1.33 10 1.66 10 2 C6.7 2.33 3.4 2.66 0 3 C0 2.01 0 1.02 0 0 Z " fill="#175E9B" transform="translate(178,91)"/>
<path d="M0 0 C3.53600465 1.91135386 5.78972846 3.62642766 8 7 C5.125 6.3125 5.125 6.3125 2 5 C0.625 2.375 0.625 2.375 0 0 Z " fill="#1A619E" transform="translate(303,83)"/>
<path d="M0 0 C2.475 0.495 2.475 0.495 5 1 C4.67 2.98 4.34 4.96 4 7 C0 2.25 0 2.25 0 0 Z " fill="#1164AA" transform="translate(35,58)"/>
<path d="M0 0 C3.8063457 0.67170806 7.35206816 1.72746564 11 3 C10.34 3.66 9.68 4.32 9 5 C4.545 3.02 4.545 3.02 0 1 C0 0.67 0 0.34 0 0 Z " fill="#1262A6" transform="translate(346,161)"/>
<path d="M0 0 C0.33 0.99 0.66 1.98 1 3 C1.66 3 2.32 3 3 3 C2.67 3.99 2.34 4.98 2 6 C-0.475 5.01 -0.475 5.01 -3 4 C-2.01 2.68 -1.02 1.36 0 0 Z " fill="#1664AA" transform="translate(509,121)"/>
<path d="M0 0 C1.04449911 3.13349732 0.93423645 3.98968256 0 7 C-1.32 5.35 -2.64 3.7 -4 2 C-2.68 1.34 -1.36 0.68 0 0 Z " fill="#1062AB" transform="translate(171,113)"/>
</svg>
