<?xml version="1.0" encoding="UTF-8"?>
<svg version="1.1" xmlns="http://www.w3.org/2000/svg" width="1024" height="1024">
<path d="M0 0 C1.68474939 -0.00389505 3.36949781 -0.00823136 5.054245 -0.01298523 C8.57517691 -0.02041809 12.0960085 -0.02017794 15.61694336 -0.01489258 C20.0985538 -0.00910737 24.57974968 -0.02602028 29.06129169 -0.04923725 C32.538593 -0.06406867 36.01579667 -0.0648335 39.49312401 -0.06172752 C41.1439108 -0.0622362 42.79470372 -0.06738739 44.44545937 -0.07753944 C61.38813929 -0.16895101 74.86140054 2.31947828 87.61328125 14.109375 C91.4056044 18.09344483 95.69921875 22.61222973 95.69921875 28.30078125 C92.69737859 29.80170133 89.59790013 29.45736828 86.3046875 29.4765625 C84.77537751 29.49980341 83.24608066 29.52392233 81.71679688 29.54882812 C79.31900799 29.58359278 76.92168901 29.61308253 74.52368164 29.62670898 C56.23335007 29.75084719 41.15099801 33.92156755 27.37890625 46.56640625 C25.61991004 48.20857129 25.61991004 48.20857129 24.69921875 50.30078125 C24.03921875 50.30078125 23.37921875 50.30078125 22.69921875 50.30078125 C22.43109375 50.87183594 22.16296875 51.44289063 21.88671875 52.03125 C20.65576497 54.38382943 19.23618908 56.44999551 17.69921875 58.61328125 C9.71813083 70.51694766 10.47150158 87.3840402 12.82421875 100.98828125 C14.34219815 107.88363106 16.8945098 113.39217639 20.69921875 119.30078125 C21.04339844 119.92082031 21.38757813 120.54085937 21.7421875 121.1796875 C25.17673405 126.85129502 30.77467308 130.40548728 36.03125 134.26171875 C36.91167969 134.93460938 37.79210937 135.6075 38.69921875 136.30078125 C38.69921875 136.63078125 38.69921875 136.96078125 38.69921875 137.30078125 C28.54260831 138.38210442 18.43892284 138.49805843 8.23828125 138.5390625 C7.37417004 138.54313803 6.51005882 138.54721355 5.61976242 138.55141258 C1.06112674 138.57210554 -3.49748018 138.58648852 -8.05615234 138.59594727 C-12.75018643 138.6070851 -17.44375609 138.64161636 -22.13762474 138.68111897 C-25.76649858 138.70725508 -29.39525983 138.71563552 -33.02421951 138.71922874 C-34.75534899 138.72408834 -36.48647366 138.73568444 -38.21751022 138.75426674 C-40.63415855 138.77863538 -43.04957485 138.77769999 -45.46630859 138.77075195 C-46.52776093 138.78996704 -46.52776093 138.78996704 -47.61065674 138.80957031 C-52.61978832 138.75719007 -55.44609744 137.44308964 -59.30078125 134.30078125 C-62.47223065 129.64172334 -62.71664051 125.36824259 -62.62890625 119.890625 C-62.62762222 119.0663652 -62.6263382 118.24210541 -62.62501526 117.39286804 C-62.61615593 114.67431869 -62.5845762 111.9566273 -62.55078125 109.23828125 C-62.53541054 107.33317564 -62.52069166 105.42806466 -62.5065918 103.52294922 C-62.47303706 99.51462687 -62.42750385 95.5066456 -62.37451172 91.49853516 C-62.30785323 86.32765307 -62.27804927 81.15728417 -62.25802612 75.98603821 C-62.23722419 71.94114433 -62.19373296 67.89671557 -62.14416504 63.8520813 C-62.12379556 61.92203282 -62.11101242 59.99188733 -62.10632324 58.06173706 C-62.04523155 40.34688686 -58.72995385 27.83847762 -46.5 14.30859375 C-33.41163292 1.69667686 -17.21745844 -0.01664778 0 0 Z " fill="#FAFAFA" transform="translate(98.30078125,469.69921875)"/>
<path d="M0 0 C1.78639893 0.00640503 1.78639893 0.00640503 3.60888672 0.01293945 C12.92328434 0.19257517 20.39547195 1.46428589 28.8125 5.5 C29.65167969 5.88414062 30.49085938 6.26828125 31.35546875 6.6640625 C45.16925991 13.65417369 56.93853417 25.6869666 61.8125 40.5 C65.66599504 53.96383086 65.13633455 67.61663174 64.8125 81.5 C61.4510445 83.18072775 57.65262532 82.62876829 53.95654297 82.61352539 C53.03941528 82.61367142 52.1222876 82.61381744 51.17736816 82.6139679 C48.13645081 82.61326948 45.0955942 82.6054804 42.0546875 82.59765625 C39.95004307 82.59579182 37.8453982 82.59436803 35.74075317 82.59336853 C30.19393725 82.58954535 24.6471474 82.57971674 19.1003418 82.56866455 C13.4432002 82.55844616 7.78605441 82.55386999 2.12890625 82.54882812 C-8.97657397 82.53809431 -20.08203482 82.52102026 -31.1875 82.5 C-30.56960525 84.57686528 -29.94612597 86.6520696 -29.3203125 88.7265625 C-28.97371582 89.88236816 -28.62711914 91.03817383 -28.27001953 92.22900391 C-25.29865665 101.20742517 -20.29730121 105.7681873 -12.1875 110.5 C-3.73478972 114.37415888 6.03361307 114.1678354 14.8125 111.5 C20.00340456 109.07228103 23.96696654 105.69512741 27.8125 101.5 C29.38922808 99.92327192 31.04125029 100.28059389 33.23046875 100.18359375 C34.60887939 100.1206311 34.60887939 100.1206311 36.01513672 100.05639648 C37.0001416 100.01716064 37.98514648 99.9779248 39 99.9375 C39.99273926 99.8950415 40.98547852 99.85258301 42.00830078 99.80883789 C49.61466207 99.50233866 57.19986069 99.38308233 64.8125 99.5 C64.26331921 111.85656769 55.34296044 121.3853698 46.8125 129.5 C43.94428521 131.80102762 41.02308168 133.71501243 37.8125 135.5 C37.2040625 135.86351562 36.595625 136.22703125 35.96875 136.6015625 C19.23644781 145.88940821 -1.8844354 146.71675509 -20.140625 142.09521484 C-37.05573978 137.17643505 -51.21028787 126.96469141 -60.13671875 111.53515625 C-70.7621384 90.95581188 -71.15362581 65.35974307 -64.1875 43.5 C-58.5685158 27.5573095 -46.02097016 14.967883 -31.3359375 6.94140625 C-28.63658827 5.66016584 -25.99831691 4.51604727 -23.1875 3.5 C-22.49519287 3.24250977 -21.80288574 2.98501953 -21.08959961 2.71972656 C-14.0456038 0.32304386 -7.40377487 -0.04013027 0 0 Z M-22.00390625 39.44140625 C-26.17736589 44.45130039 -28.61843487 49.17890904 -30.1875 55.5 C-29.1488511 56.76184609 -29.1488511 56.76184609 -26.86534119 56.62025452 C-25.32312645 56.6169236 -25.32312645 56.6169236 -23.74975586 56.61352539 C-22.58862778 56.61344986 -21.42749969 56.61337433 -20.23118591 56.61329651 C-18.967668 56.60813522 -17.70415009 56.60297394 -16.40234375 56.59765625 C-15.11638809 56.5962413 -13.83043243 56.59482635 -12.50550842 56.59336853 C-9.08106557 56.58954418 -5.65666491 56.57971462 -2.23223877 56.56866455 C1.25988189 56.55844864 4.75200934 56.55387053 8.24414062 56.54882812 C15.10027778 56.53809227 21.95638687 56.52101684 28.8125 56.5 C30.06470631 51.12837034 28.97710767 48.72167621 26.39453125 43.93359375 C22.12938143 37.3726349 15.31294124 33.19503393 7.8984375 30.91015625 C-2.95935437 28.77519718 -14.30629624 31.21406824 -22.00390625 39.44140625 Z " fill="#F6F6F6" transform="translate(594.1875,460.5)"/>
<path d="M0 0 C8.11923406 7.22007921 13.01869706 16.37301152 15 27 C15.125 30 15.125 30 15 32 C10.30623571 32.77490161 5.9418367 33.07592871 1.19140625 32.87890625 C-0.04931641 32.83056641 -1.29003906 32.78222656 -2.56835938 32.73242188 C-3.84517578 32.67634766 -5.12199219 32.62027344 -6.4375 32.5625 C-7.74138672 32.51029297 -9.04527344 32.45808594 -10.38867188 32.40429688 C-13.59272447 32.27519585 -16.79641946 32.14025405 -20 32 C-20.24959473 31.45585449 -20.49918945 30.91170898 -20.75634766 30.35107422 C-21.09714355 29.6345166 -21.43793945 28.91795898 -21.7890625 28.1796875 C-22.12115723 27.47054199 -22.45325195 26.76139648 -22.79541016 26.03076172 C-25.63786326 21.23880288 -30.00161694 19.5299848 -35.2109375 18.1484375 C-43.23668193 16.67793687 -50.39636611 16.80426981 -58 20 C-59.02782567 20.97137758 -60.03557546 21.9656474 -61 23 C-61.66 23 -62.32 23 -63 23 C-63.13547465 24.91470844 -63.23220869 26.83218481 -63.3125 28.75 C-63.39951172 30.35101563 -63.39951172 30.35101563 -63.48828125 31.984375 C-63.26209957 35.12889863 -63.26209957 35.12889863 -60.9296875 37.26171875 C-57.56388734 39.25876018 -54.62273647 40.16528835 -50.8125 41.0625 C-50.11906494 41.2282251 -49.42562988 41.3939502 -48.71118164 41.56469727 C-43.48740925 42.77197688 -38.23491447 43.62856048 -32.9375 44.4375 C-17.30880988 46.87157252 -1.97327065 52.01417434 9 64 C16.18530725 74.0434628 17.84160093 82.7255742 17 95 C15.88296823 100.77268975 13.56475285 105.31489625 10 110 C9.60296875 110.55300781 9.2059375 111.10601563 8.796875 111.67578125 C0.07868305 122.97435759 -15.39347007 129.06133243 -29.21435547 131.12280273 C-48.80301997 133.54965455 -69.63647226 132.40455705 -86.39453125 121.0390625 C-94.48392631 114.70823158 -99.40279317 107.5522467 -103 98 C-103.433125 96.9275 -103.86625 95.855 -104.3125 94.75 C-105.14718455 91.41126179 -105.20160556 88.42729449 -105 85 C-103.0628981 83.0628981 -99.43200257 83.8127562 -96.7890625 83.796875 C-96.06512299 83.79117493 -95.34118347 83.78547485 -94.5953064 83.77960205 C-93.06029732 83.7701388 -91.5252678 83.76361283 -89.99023438 83.75976562 C-87.64156575 83.7500684 -85.29377519 83.71906271 -82.9453125 83.6875 C-81.45573438 83.68096931 -79.96614998 83.6757191 -78.4765625 83.671875 C-77.77334869 83.6595282 -77.07013489 83.6471814 -76.34561157 83.63446045 C-71.48052814 83.65667578 -71.48052814 83.65667578 -69.13427734 85.33300781 C-66.86147302 88.67323767 -65.27409439 92.17771684 -64 96 C-54.90319893 101.59484348 -44.13491073 103.62117656 -33.78515625 101.26953125 C-29.29226631 99.93527909 -25.84741799 98.74888101 -22.3125 95.625 C-20.18678183 91.37356367 -19.58121373 88.5785021 -20.8125 83.9375 C-26.64504782 76.1052215 -37.07900484 74.86711425 -46.14758301 73.34524536 C-49.60479751 72.76012975 -53.05036404 72.11373092 -56.49609375 71.46484375 C-57.16158234 71.33979965 -57.82707092 71.21475555 -58.51272583 71.08592224 C-71.90501825 68.52594334 -86.04055219 64.13678015 -94.7890625 52.9609375 C-100.43213938 43.82279366 -102.34641013 34.08893042 -100.3515625 23.5859375 C-97.26271724 11.46815995 -91.69733749 2.67090743 -81 -4 C-55.39236993 -17.75988322 -23.91374917 -16.6901477 0 0 Z " fill="#F7F7F7" transform="translate(907,473)"/>
<path d="M0 0 C7.3370929 6.50408107 13.19842151 15.49378899 14.95996094 25.28710938 C14.99884443 27.6201187 15.00482444 29.95420738 14.95996094 32.28710938 C8.24045179 33.55758086 1.71338636 33.45746731 -5.10253906 33.34960938 C-7.00229492 33.3718457 -7.00229492 33.3718457 -8.94042969 33.39453125 C-18.05121679 33.21645459 -18.05121679 33.21645459 -20.90307617 30.53613281 C-22.19628906 28.40039062 -22.19628906 28.40039062 -23.10058594 26.28051758 C-24.90588514 22.44988661 -28.21475714 20.77538312 -32.04003906 19.28710938 C-41.62818525 16.92399316 -49.54667023 16.54042496 -58.41503906 20.97460938 C-61.73110668 23.89590704 -62.95022845 26.00052097 -64.04003906 30.28710938 C-63.3691998 34.13019866 -63.3691998 34.13019866 -61.04003906 37.28710938 C-53.39378986 41.94134802 -43.43989606 42.90957662 -34.71948242 44.36083984 C-16.37438044 47.42280937 0.04078041 52.52252067 11.89746094 67.78710938 C16.83456072 75.37593767 18.87423139 84.74997848 17.40527344 93.64648438 C14.35824782 105.99637581 7.84037262 115.5725419 -3.04003906 122.28710938 C-6.62689644 124.1869499 -10.267984 125.79262557 -14.04003906 127.28710938 C-14.75675781 127.58488281 -15.47347656 127.88265625 -16.21191406 128.18945312 C-34.67776473 135.16621249 -58.2020234 133.88003965 -76.48535156 126.57226562 C-90.23095938 119.65742622 -99.19628913 108.81835918 -104.04003906 94.28710938 C-104.13186849 92.74761609 -104.17006259 91.20433082 -104.16503906 89.66210938 C-104.16761719 88.86546875 -104.17019531 88.06882812 -104.17285156 87.24804688 C-104.04003906 85.28710938 -104.04003906 85.28710938 -103.04003906 84.28710938 C-98.51589581 84.06829412 -93.98642141 84.10131872 -89.45751953 84.10180664 C-87.1814491 84.0996251 -84.90586707 84.08148708 -82.62988281 84.0625 C-81.18587406 84.05956515 -79.74186299 84.05758097 -78.29785156 84.05664062 C-76.97930176 84.05253174 -75.66075195 84.04842285 -74.30224609 84.04418945 C-71.04003906 84.28710938 -71.04003906 84.28710938 -68.04003906 86.28710938 C-67.08300781 88.05664062 -67.08300781 88.05664062 -66.22753906 90.09960938 C-63.52245608 95.71316504 -59.69691144 98.84122884 -53.91503906 101.09960938 C-44.11585327 103.95565348 -34.17807989 102.74603291 -25.04003906 98.28710938 C-22.46440994 96.24316681 -21.2327395 95.10442502 -20.47363281 91.88476562 C-20.48019952 87.6229703 -20.5437859 85.04803089 -22.91503906 81.41210938 C-31.09248944 75.85144312 -40.11376951 74.34763982 -49.72753906 72.84960938 C-83.06835337 67.22742434 -83.06835337 67.22742434 -94.04003906 53.78710938 C-100.54039902 44.51865355 -102.04600308 34.83341432 -100.47753906 23.66210938 C-97.85976253 11.75209297 -90.56403745 2.72621234 -80.54003906 -3.90039062 C-57.03325267 -17.21847703 -21.45151467 -17.4712275 0 0 Z " fill="#F7F7F7" transform="translate(497.0400390625,472.712890625)"/>
<path d="M0 0 C1.28903481 -0.00855011 1.28903481 -0.00855011 2.60411072 -0.01727295 C4.41338903 -0.02665737 6.22268393 -0.03323058 8.03198242 -0.03710938 C10.74624889 -0.04676439 13.4597402 -0.07783017 16.17382812 -0.109375 C35.60032108 -0.22943876 54.12738317 1.9577316 68.8203125 16.10546875 C74.21104098 22.07417224 77.77967238 28.7588498 80.71484375 36.203125 C81.10671875 37.193125 81.49859375 38.183125 81.90234375 39.203125 C83.94553492 46.74721546 83.86367138 54.54368666 83.84765625 62.30859375 C83.84861298 63.35026199 83.8495697 64.39193024 83.85055542 65.46516418 C83.85123259 67.65947531 83.84941077 69.85378849 83.84521484 72.0480957 C83.83988735 75.36349116 83.84516166 78.67874948 83.8515625 81.99414062 C83.86372031 112.41727899 83.86372031 112.41727899 79.71484375 125.203125 C75.56723636 126.36288507 71.56654418 126.33195843 67.2890625 126.296875 C66.45565842 126.29328979 65.62225433 126.28970459 64.76359558 126.28601074 C55.01535765 126.22482187 45.27172395 125.96921364 35.52734375 125.703125 C33.68685491 125.654721 31.84636012 125.60654299 30.00585938 125.55859375 C25.57544823 125.44269345 21.14512756 125.32379046 16.71484375 125.203125 C16.71484375 121.42389842 17.91559701 120.10448764 19.96484375 116.953125 C28.11928109 103.17493777 29.9948288 87.3095235 26.52734375 71.765625 C22.07654083 56.80767547 12.36661957 43.95545947 -1.28515625 36.203125 C-2.10113281 35.73390625 -2.91710937 35.2646875 -3.7578125 34.78125 C-18.80871284 27.06283957 -35.84018704 27.77799322 -52.28515625 28.203125 C-48.61464168 16.55535875 -40.67389919 10.45067313 -30.09765625 4.828125 C-20.65331725 0.47067591 -10.24646791 0.05442052 0 0 Z " fill="#F9F9F9" transform="translate(264.28515625,469.796875)"/>
<path d="M0 0 C0.692146 0.1767627 1.38429199 0.35352539 2.09741211 0.53564453 C16.5554175 4.47492716 26.31609809 12.83906363 34.1875 25.375 C40.86976198 38.04961491 41.61204561 52.74275492 38.0625 66.5 C33.1629543 80.89093616 23.59596631 91.46016266 10.1875 98.375 C-4.30681309 104.26554596 -17.90170675 104.76014384 -32.49609375 98.89453125 C-46.32089424 92.61691498 -55.83422509 83.06482437 -61.75 69.0625 C-65.95570477 56.32005012 -65.89261788 40.46349396 -59.8125 28.375 C-52.98246024 15.61406495 -42.86804341 5.27804564 -28.84130859 0.73681641 C-19.11194625 -1.85879661 -9.78470035 -2.51409924 0 0 Z " fill="#FAFAFA" transform="translate(132.8125,355.625)"/>
<path d="M0 0 C12.21 0 24.42 0 37 0 C37 63.36 37 126.72 37 192 C24.79 192 12.58 192 0 192 C-1.49939829 189.00120342 -1.13711124 185.92414289 -1.12698364 182.63574219 C-1.12854363 181.86773663 -1.13010362 181.09973106 -1.13171089 180.30845261 C-1.13571654 177.72124086 -1.13253291 175.13408724 -1.12939453 172.546875 C-1.13074876 170.69763148 -1.13252882 168.84838824 -1.13470459 166.99914551 C-1.1392763 161.96622562 -1.13749043 156.93332615 -1.1343255 151.90040588 C-1.13180056 146.64291324 -1.13413982 141.38542239 -1.13571167 136.12792969 C-1.13753297 127.29752284 -1.13512809 118.46712434 -1.13037109 109.63671875 C-1.12492855 99.41544806 -1.12669124 89.1941973 -1.1321975 78.97292709 C-1.13672975 70.21029362 -1.13737863 61.44766616 -1.13475883 52.68503189 C-1.13319668 47.44573896 -1.13300061 42.20645542 -1.13629532 36.96716309 C-1.13917565 32.04246585 -1.13719532 27.11779442 -1.13140106 22.19309998 C-1.13007434 20.38142439 -1.1304661 18.56974664 -1.13266373 16.7580719 C-1.13537866 14.29343748 -1.13198985 11.82888683 -1.12698364 9.36425781 C-1.12921436 8.63994946 -1.13144509 7.9156411 -1.13374341 7.169384 C-1.11415008 2.22830017 -1.11415008 2.22830017 0 0 Z " fill="#F3F3F3" transform="translate(679,410)"/>
<path d="M0 0 C11.88 0 23.76 0 36 0 C37.48837411 2.97674822 37.13716363 6.01120085 37.12698364 9.27487183 C37.12854363 10.03329915 37.13010362 10.79172648 37.13171089 11.57313645 C37.13571644 14.12804141 37.13253293 16.68288751 37.12939453 19.23779297 C37.13074879 21.06408727 37.13252886 22.8903813 37.13470459 24.7166748 C37.13927662 29.68774757 37.13749013 34.65879966 37.1343255 39.6298728 C37.13179995 44.82503663 37.13414006 50.02019865 37.13571167 55.21536255 C37.13753312 63.9432202 37.13512804 72.67106941 37.13037109 81.39892578 C37.12493193 91.49518858 37.12668872 101.59143117 37.1321975 111.68769348 C37.13673339 120.34674976 37.13737673 129.00579995 37.13475883 137.66485703 C37.13319825 142.8404976 37.13299626 148.01612868 37.13629532 153.19176865 C37.13918081 158.05901791 37.1371858 162.92624111 37.13140106 167.79348755 C37.13007697 169.58174725 37.13046166 171.37000914 37.13266373 173.15826797 C37.13538903 175.59592873 37.13197705 178.03350551 37.12698364 180.47116089 C37.12921436 181.18186167 37.13144509 181.89256244 37.13374341 182.62479961 C37.12071349 185.89579694 37.00650532 188.87154803 36 192 C30.89136104 192.0246501 25.78275641 192.04283607 20.67407227 192.05493164 C18.93480832 192.05997204 17.19554864 192.0668043 15.45629883 192.07543945 C12.96174063 192.08751792 10.46723827 192.09323108 7.97265625 192.09765625 C7.19036148 192.10281754 6.40806671 192.10797882 5.60206604 192.11329651 C3.73432886 192.11349226 1.86670796 192.06199694 0 192 C-1.68869775 190.31130225 -1.12477039 188.21821882 -1.13374341 185.9643594 C-1.13151268 185.23782032 -1.12928196 184.51128124 -1.12698364 183.76272583 C-1.12854363 182.99628026 -1.13010362 182.22983469 -1.13171089 181.44016349 C-1.13572395 178.85217972 -1.13253005 176.26425382 -1.12939453 173.67626953 C-1.13074846 171.82879603 -1.13252834 169.98132281 -1.13470459 168.1338501 C-1.13928057 163.10080385 -1.13748852 158.06777801 -1.1343255 153.03473139 C-1.13180199 147.7777008 -1.13413949 142.52067201 -1.13571167 137.26364136 C-1.13753371 128.43145432 -1.13512649 119.59927562 -1.13037109 110.76708984 C-1.12493177 100.54642795 -1.1266886 90.325786 -1.1321975 80.10512459 C-1.13673166 71.34334489 -1.13737759 62.58157121 -1.13475883 53.81979072 C-1.1331973 48.58100995 -1.13299886 43.34223857 -1.13629532 38.1034584 C-1.13917829 33.17712976 -1.13719043 28.25082689 -1.13140106 23.32450104 C-1.13007562 21.51324634 -1.13046394 19.70198948 -1.13266373 17.89073563 C-1.13538374 15.424208 -1.13198354 12.95776373 -1.12698364 10.49124146 C-1.12921436 9.76916382 -1.13144509 9.04708618 -1.13374341 8.30312741 C-1.1216981 5.2534711 -0.97281594 2.91844783 0 0 Z " fill="#F6F6F6" transform="translate(743,410)"/>
<path d="M0 0 C0.88790222 -0.0021904 1.77580444 -0.0043808 2.69061279 -0.00663757 C17.09050103 0.03240129 29.7198164 2.22635454 40.8984375 12.08984375 C42.84765625 14.45703125 42.84765625 14.45703125 44.5859375 16.96484375 C45.16730469 17.78726563 45.74867188 18.6096875 46.34765625 19.45703125 C49.61275147 25.00029114 50.23020797 30.05878815 50.1484375 36.40234375 C50.14166992 37.15636475 50.13490234 37.91038574 50.12792969 38.68725586 C50.02890296 44.021457 49.69438478 49.02381906 47.8984375 54.08984375 C47.66511719 54.76015625 47.43179688 55.43046875 47.19140625 56.12109375 C43.8104998 64.14881683 36.62260806 69.85752117 28.79296875 73.34765625 C23.089986 75.58181444 17.02208369 77.53725103 10.8984375 76.08984375 C6.08048059 72.62501516 3.87522928 67.85291525 2.8984375 62.08984375 C2.76124732 58.74828306 2.77741152 55.43150559 2.8984375 52.08984375 C3.77886719 51.98027344 4.65929687 51.87070312 5.56640625 51.7578125 C7.30857422 51.51998047 7.30857422 51.51998047 9.0859375 51.27734375 C10.23449219 51.12652344 11.38304687 50.97570312 12.56640625 50.8203125 C17.48757528 49.74146302 20.09846106 48.28980841 22.8984375 44.08984375 C23.25349175 41.48407505 23.25349175 41.48407505 23.2109375 38.65234375 C23.23607422 37.23115234 23.23607422 37.23115234 23.26171875 35.78125 C22.82442381 32.54150574 22.22716934 31.37698875 19.8984375 29.08984375 C16.80431695 28.49325327 16.80431695 28.49325327 13.19897461 28.60400391 C12.52209595 28.60020721 11.84521729 28.59641052 11.14782715 28.59249878 C8.90667552 28.585082 6.66681812 28.60650444 4.42578125 28.62890625 C2.86218925 28.63129209 1.29859435 28.6321957 -0.26499939 28.63168335 C-3.54786047 28.63481422 -6.83028575 28.65138919 -10.11303711 28.67822266 C-14.29679028 28.71200665 -18.48006019 28.71985678 -22.66393375 28.71833229 C-25.89756284 28.71887982 -29.1310887 28.72991106 -32.36468315 28.74433517 C-33.90546323 28.75065203 -35.44625489 28.75462994 -36.9870472 28.75612259 C-49.31824108 28.30956561 -49.31824108 28.30956561 -61.1015625 31.08984375 C-62.96057589 33.84244865 -63.10218386 35.05629013 -63.0390625 38.46484375 C-61.84804548 43.07010954 -60.49323343 44.77525625 -57.1015625 48.08984375 C-52.86730004 50.329552 -48.78364364 50.38464784 -44.09765625 50.3984375 C-42.53710541 50.4235835 -40.97655863 50.44898172 -39.41601562 50.47460938 C-36.97144501 50.50339798 -34.52694423 50.52743648 -32.08227539 50.54614258 C-29.71205064 50.56779607 -27.34260961 50.60721504 -24.97265625 50.6484375 C-24.24340439 50.64855331 -23.51415253 50.64866913 -22.76280212 50.64878845 C-19.67125841 50.70905189 -17.41044374 50.92772189 -14.65209961 52.37548828 C-12.04209429 55.26124759 -12.33866529 58.8186098 -12.2265625 62.52734375 C-12.18015625 63.29111328 -12.13375 64.05488281 -12.0859375 64.84179688 C-11.76473419 71.93915455 -11.76473419 71.93915455 -14.1015625 75.08984375 C-17.34712301 76.71262401 -20.91617229 76.2957614 -24.484375 76.328125 C-25.33144012 76.33619675 -26.17850525 76.34426849 -27.05123901 76.35258484 C-28.85526479 76.36644352 -30.65931699 76.37715766 -32.46337891 76.38500977 C-34.28051617 76.39640902 -36.09762327 76.41666364 -37.91455078 76.4465332 C-68.12480575 76.9429198 -68.12480575 76.9429198 -79.27734375 66.9375 C-79.87933594 66.32777344 -80.48132813 65.71804688 -81.1015625 65.08984375 C-81.67261719 64.53167969 -82.24367187 63.97351563 -82.83203125 63.3984375 C-90.52184444 55.21495729 -92.75369521 45.23409603 -92.5078125 34.3125 C-91.909521 24.82744297 -85.97096946 16.36127686 -79.1015625 10.08984375 C-70.61200177 3.31946337 -60.77175349 1.67410907 -50.1796875 1.359375 C-49.15840759 1.31922775 -48.13712769 1.27908051 -47.0848999 1.23771667 C-44.93035895 1.15540424 -42.77557381 1.07927232 -40.62060547 1.0090332 C-37.40138612 0.90396981 -34.18327772 0.78096993 -30.96484375 0.65429688 C-20.64380155 0.26536191 -10.32865346 0.01722572 0 0 Z " fill="#F6F6F6" transform="translate(222.1015625,518.91015625)"/>
<path d="M0 0 C8.47428542 6.28889456 15.55465832 14.03336386 17.78125 24.6953125 C18.82793974 33.9701466 19.20194 43.62600763 15.0625 52.1875 C14.71058594 52.94417969 14.35867188 53.70085937 13.99609375 54.48046875 C8.87791705 64.56479711 0.68123433 71.52529931 -10.01171875 75.26171875 C-23.51701143 78.86204406 -34.81901844 76.69047306 -46.9375 70.1875 C-56.98231253 62.52927451 -63.19299184 54.02018237 -65.41015625 41.5234375 C-66.85726103 29.71373181 -63.76858792 19.25623288 -56.875 9.625 C-42.63180382 -7.63582249 -19.13489004 -12.20053673 0 0 Z " fill="#F9F9F9" transform="translate(298.9375,383.8125)"/>
<path d="M0 0 C12.21 0 24.42 0 37 0 C37 45.21 37 90.42 37 137 C24.79 137 12.58 137 0 137 C-1.70597818 135.29402182 -1.12609838 133.09366912 -1.12698364 130.76135254 C-1.12980347 129.62551224 -1.13262329 128.48967194 -1.13552856 127.31941223 C-1.13350433 126.06222885 -1.1314801 124.80504547 -1.12939453 123.50976562 C-1.13114685 122.19449387 -1.13289917 120.87922211 -1.13470459 119.52409363 C-1.13927865 115.90642318 -1.13748948 112.28878112 -1.1343255 108.67111015 C-1.13180176 104.89324744 -1.13413948 101.11538722 -1.13571167 97.33752441 C-1.13753332 90.99210166 -1.13512717 84.64669052 -1.13037109 78.30126953 C-1.12492848 70.95483357 -1.12669114 63.60842536 -1.1321975 56.26199007 C-1.13672875 49.96561333 -1.13737912 43.66924496 -1.13475883 37.37286711 C-1.13319612 33.6074449 -1.13300212 29.84203576 -1.13629532 26.07661438 C-1.13970802 21.88113753 -1.13498411 17.68570887 -1.12939453 13.49023438 C-1.13141876 12.23305099 -1.13344299 10.97586761 -1.13552856 9.68058777 C-1.13270874 8.54474747 -1.12988892 7.40890717 -1.12698364 6.23864746 C-1.12660662 5.24533165 -1.12622959 4.25201584 -1.12584114 3.22859955 C-1 1 -1 1 0 0 Z " fill="#F6F6F6" transform="translate(943,465)"/>
<path d="M0 0 C4.89762175 4.46420389 7.65480291 8.86391123 8.21484375 15.57421875 C8.46682151 22.96220661 7.20559328 27.29460328 3.4375 33.625 C-1.59433953 38.527818 -7.45399142 41.27519816 -14.5 41.625 C-21.89683738 41.24782416 -27.53852622 38.25198665 -32.9375 33.3125 C-36.26652655 27.96588161 -38.45304271 22.26269994 -37.9375 15.875 C-36.06085995 8.11822114 -32.95080757 2.26316198 -26 -2 C-16.83491478 -6.09662863 -8.39336038 -5.75742902 0 0 Z " fill="#F3F3F3" transform="translate(976,414)"/>
<path d="M0 0 C0.66 0.33 1.32 0.66 2 1 C-1.63 4.63 -5.26 8.26 -9 12 C-9 9 -9 9 -6.75 6.5625 C-5.8425 5.716875 -4.935 4.87125 -4 4 C-3.236875 3.236875 -2.47375 2.47375 -1.6875 1.6875 C-1.130625 1.130625 -0.57375 0.57375 0 0 Z " fill="#B3B3B3" transform="translate(225,480)"/>
</svg>
