<?xml version="1.0" encoding="UTF-8"?>
<!DOCTYPE svg PUBLIC "-//W3C//DTD SVG 1.1//EN" "http://www.w3.org/Graphics/SVG/1.1/DTD/svg11.dtd">
<svg xmlns="http://www.w3.org/2000/svg" version="1.1" width="220px" height="177px" style="shape-rendering:geometricPrecision; text-rendering:geometricPrecision; image-rendering:optimizeQuality; fill-rule:evenodd; clip-rule:evenodd" xmlns:xlink="http://www.w3.org/1999/xlink">
<g><path style="opacity:1" fill="#f9fbfb" d="M 57.5,-0.5 C 111.5,-0.5 165.5,-0.5 219.5,-0.5C 219.5,51.5 219.5,103.5 219.5,155.5C 212.395,157.077 211.728,155.577 217.5,151C 214.806,146.148 213.306,146.648 213,152.5C 211.352,153.717 209.519,154.55 207.5,155C 194.746,155.545 182.079,156.545 169.5,158C 169.957,157.586 170.291,157.086 170.5,156.5C 168.343,155.21 166.01,154.376 163.5,154C 165.91,153.242 166.91,151.575 166.5,149C 166.197,145.903 165.864,142.737 165.5,139.5C 164.065,140.929 163.065,142.595 162.5,144.5C 165.671,150.685 163.671,153.352 156.5,152.5C 156.557,148.867 155.557,148.7 153.5,152C 150.937,153.079 148.271,153.579 145.5,153.5C 162.867,146.769 167.367,135.102 159,118.5C 155.731,115.117 151.897,112.617 147.5,111C 127.5,110.333 107.5,110.333 87.5,111C 72.0091,116.486 67.1758,126.986 73,142.5C 74.6692,143.846 75.8358,145.513 76.5,147.5C 75.2652,147.279 74.2652,146.612 73.5,145.5C 71.9402,147.429 69.9402,148.762 67.5,149.5C 66.8333,148.5 66.1667,147.5 65.5,146.5C 65.1667,147 64.8333,147.5 64.5,148C 65.9866,150.291 66.9866,152.791 67.5,155.5C 62.5709,151.323 59.4042,145.99 58,139.5C 55.4706,117.216 64.9706,103.216 86.5,97.5C 95.8393,97.6665 105.173,97.4998 114.5,97C 113.956,96.2828 113.289,95.7828 112.5,95.5C 105.887,85.5124 96.5541,79.5124 84.5,77.5C 68.6754,76.5036 52.6754,76.1703 36.5,76.5C 54.8601,75.18 73.3601,75.18 92,76.5C 93.0588,76.3699 93.8921,75.8699 94.5,75C 89.4608,72.2658 84.1275,70.0991 78.5,68.5C 69.1125,72.0138 59.6125,72.3471 50,69.5C 49.228,69.6448 48.5613,69.9781 48,70.5C 47.3728,68.0727 46.2062,66.0727 44.5,64.5C 61.7217,73.4875 76.555,70.4875 89,55.5C 99.6769,35.3909 95.5102,19.2242 76.5,7C 62.2986,0.724587 49.6319,2.89125 38.5,13.5C 38.5,12.1667 38.5,10.8333 38.5,9.5C 42.8099,7.34503 47.1433,5.17836 51.5,3C 53.4727,2.50454 55.4727,2.33788 57.5,2.5C 57.5,1.5 57.5,0.5 57.5,-0.5 Z"/></g>
<g><path style="opacity:1" fill="#0e6cbc" d="M 44.5,64.5 C 30.9691,54.7257 26.4691,41.7257 31,25.5C 32.9018,21.1041 35.4018,17.1041 38.5,13.5C 49.6319,2.89125 62.2986,0.724587 76.5,7C 95.5102,19.2242 99.6769,35.3909 89,55.5C 76.555,70.4875 61.7217,73.4875 44.5,64.5 Z"/></g>
<g><path style="opacity:1" fill="#116bbb" d="M 158.5,21.5 C 178.309,19.3279 189.642,27.9945 192.5,47.5C 189.447,69.3655 177.113,77.8655 155.5,73C 142.006,65.2358 137.173,53.7358 141,38.5C 144.77,30.5613 150.603,24.8946 158.5,21.5 Z"/></g>
<g><path style="opacity:1" fill="#8db9e7" d="M 36.5,76.5 C 52.6754,76.1703 68.6754,76.5036 84.5,77.5C 67.1388,77.2228 49.8055,77.5562 32.5,78.5C 33.6715,77.6554 35.0048,76.9887 36.5,76.5 Z"/></g>
<g><path style="opacity:1" fill="#164c88" d="M 112.5,95.5 C 113.289,95.7828 113.956,96.2828 114.5,97C 105.173,97.4998 95.8393,97.6665 86.5,97.5C 94.5951,96.8072 103.262,96.1405 112.5,95.5 Z"/></g>
<g><path style="opacity:1" fill="#126bbb" d="M 206.5,153.5 C 195.167,153.5 183.833,153.5 172.5,153.5C 174.543,148.717 175.876,143.717 176.5,138.5C 178.323,119.305 170.323,106.138 152.5,99C 142.855,98.0079 133.188,97.1745 123.5,96.5C 129.882,88.3032 138.215,83.1365 148.5,81C 202.678,73.7664 223.511,96.9331 211,150.5C 209.729,151.883 208.229,152.883 206.5,153.5 Z"/></g>
<g><path style="opacity:1" fill="#106bbb" d="M 84.5,77.5 C 96.5541,79.5124 105.887,85.5124 112.5,95.5C 103.262,96.1405 94.5951,96.8072 86.5,97.5C 64.9706,103.216 55.4706,117.216 58,139.5C 59.4042,145.99 62.5709,151.323 67.5,155.5C 70.7354,160.123 75.0687,163.289 80.5,165C 57.8333,165.667 35.1667,165.667 12.5,165C 10,163.833 8.16667,162 7,159.5C 6.33333,141.167 6.33333,122.833 7,104.5C 10.9839,91.3499 19.4839,82.6832 32.5,78.5C 49.8055,77.5562 67.1388,77.2228 84.5,77.5 Z"/></g>
<g><path style="opacity:1" fill="#156ab9" d="M 145.5,153.5 C 141.154,153.666 136.821,153.499 132.5,153C 130.081,151.314 129.081,148.981 129.5,146C 129.305,143.648 129.972,141.648 131.5,140C 135.167,139.667 138.833,139.333 142.5,139C 148.155,137.125 149.989,133.292 148,127.5C 146.829,126.107 145.329,125.273 143.5,125C 125.5,124.333 107.5,124.333 89.5,125C 83.7213,128.465 83.0546,132.799 87.5,138C 97.1667,138.333 106.833,138.667 116.5,139C 118.523,142.183 119.023,145.683 118,149.5C 116.681,151.487 114.848,152.654 112.5,153C 103.833,153.667 95.1667,153.667 86.5,153C 82.7885,151.773 79.4552,149.94 76.5,147.5C 75.8358,145.513 74.6692,143.846 73,142.5C 67.1758,126.986 72.0091,116.486 87.5,111C 107.5,110.333 127.5,110.333 147.5,111C 151.897,112.617 155.731,115.117 159,118.5C 167.367,135.102 162.867,146.769 145.5,153.5 Z"/></g>
<g><path style="opacity:1" fill="#fafbfa" d="M -0.5,-0.5 C 18.8333,-0.5 38.1667,-0.5 57.5,-0.5C 57.5,0.5 57.5,1.5 57.5,2.5C 55.4727,2.33788 53.4727,2.50454 51.5,3C 47.1433,5.17836 42.8099,7.34503 38.5,9.5C 38.5,10.8333 38.5,12.1667 38.5,13.5C 35.4018,17.1041 32.9018,21.1041 31,25.5C 26.4691,41.7257 30.9691,54.7257 44.5,64.5C 46.2062,66.0727 47.3728,68.0727 48,70.5C 48.5613,69.9781 49.228,69.6448 50,69.5C 59.6125,72.3471 69.1125,72.0138 78.5,68.5C 84.1275,70.0991 89.4608,72.2658 94.5,75C 93.8921,75.8699 93.0588,76.3699 92,76.5C 73.3601,75.18 54.8601,75.18 36.5,76.5C 35.0048,76.9887 33.6715,77.6554 32.5,78.5C 19.4839,82.6832 10.9839,91.3499 7,104.5C 6.33333,122.833 6.33333,141.167 7,159.5C 8.16667,162 10,163.833 12.5,165C 35.1667,165.667 57.8333,165.667 80.5,165C 75.0687,163.289 70.7354,160.123 67.5,155.5C 66.9866,152.791 65.9866,150.291 64.5,148C 64.8333,147.5 65.1667,147 65.5,146.5C 66.1667,147.5 66.8333,148.5 67.5,149.5C 69.9402,148.762 71.9402,147.429 73.5,145.5C 74.2652,146.612 75.2652,147.279 76.5,147.5C 79.4552,149.94 82.7885,151.773 86.5,153C 95.1667,153.667 103.833,153.667 112.5,153C 114.848,152.654 116.681,151.487 118,149.5C 119.023,145.683 118.523,142.183 116.5,139C 106.833,138.667 97.1667,138.333 87.5,138C 83.0546,132.799 83.7213,128.465 89.5,125C 107.5,124.333 125.5,124.333 143.5,125C 145.329,125.273 146.829,126.107 148,127.5C 149.989,133.292 148.155,137.125 142.5,139C 138.833,139.333 135.167,139.667 131.5,140C 129.972,141.648 129.305,143.648 129.5,146C 129.081,148.981 130.081,151.314 132.5,153C 136.821,153.499 141.154,153.666 145.5,153.5C 148.271,153.579 150.937,153.079 153.5,152C 155.557,148.7 156.557,148.867 156.5,152.5C 163.671,153.352 165.671,150.685 162.5,144.5C 163.065,142.595 164.065,140.929 165.5,139.5C 165.864,142.737 166.197,145.903 166.5,149C 166.91,151.575 165.91,153.242 163.5,154C 166.01,154.376 168.343,155.21 170.5,156.5C 170.291,157.086 169.957,157.586 169.5,158C 182.079,156.545 194.746,155.545 207.5,155C 209.519,154.55 211.352,153.717 213,152.5C 213.306,146.648 214.806,146.148 217.5,151C 211.728,155.577 212.395,157.077 219.5,155.5C 219.5,162.5 219.5,169.5 219.5,176.5C 146.167,176.5 72.8333,176.5 -0.5,176.5C -0.5,117.5 -0.5,58.5 -0.5,-0.5 Z"/></g>
<g><path style="opacity:1" fill="#4779b2" d="M 176.5,138.5 C 175.876,143.717 174.543,148.717 172.5,153.5C 183.833,153.5 195.167,153.5 206.5,153.5C 193.994,154.825 181.327,154.825 168.5,153.5C 172.149,148.896 174.816,143.896 176.5,138.5 Z"/></g>
</svg>
