<svg xmlns="http://www.w3.org/2000/svg" width="48" height="48" viewBox="0 0 48 48"><g><circle fill="#25D366" cx="24" cy="24" r="24"/><path fill="#fff" d="M36.1 32.2c-.5-1.1-2.6-1.7-3.6-1.9-.9-.2-1.1-.3-1.6.3-.5.6-1 1.1-1.8 1.1-.8 0-1.6-.7-2.2-1.3-1.2-1.2-2.2-2.7-2.2-3.1 0-.4.2-.6.4-.8.2-.2.4-.5.6-.8.2-.3.1-.6 0-.8-.1-.2-.9-2.2-1.2-3-.3-.7-.6-.6-.8-.6-.2 0-.4 0-.6 0-.2 0-.6.1-.9.4-.3.3-1.2 1.2-1.2 2.9 0 1.7 1.2 3.3 1.4 3.5.2.2 2.3 3.6 5.6 4.9 3.3 1.3 3.3.9 3.9.8.6-.1 1.9-.8 2.2-1.6.3-.8.3-1.5.2-1.6z"/></g></svg>
