<svg width="400" height="120" viewBox="0 0 400 120" fill="none" xmlns="http://www.w3.org/2000/svg">
<path d="M138.226 16.7281C138.542 19.7962 138.189 22.1777 137.169 23.8727C136.148 25.5678 134.793 26.8983 133.104 27.8642C131.415 28.8302 129.544 29.6018 127.497 30.1668C125.449 30.7318 123.578 31.4609 121.877 32.3479C120.182 33.2349 118.815 34.4925 117.788 36.1024C116.762 37.7185 116.397 39.9846 116.695 42.8886C116.877 44.6991 117.43 45.9931 118.341 46.7768C119.259 47.5606 120.316 48.0284 121.525 48.1802C122.734 48.3382 124.07 48.3807 125.534 48.3078C126.999 48.241 128.335 48.2835 129.544 48.4354C130.753 48.5934 131.81 49.0186 132.716 49.7234C133.621 50.4281 134.168 51.6797 134.35 53.4901C134.666 56.5582 133.985 59.2495 132.315 61.5703C130.644 63.885 128.517 64.7417 125.237 64.9239C121.98 65.1062 115.954 66.7891 113.286 69.0916C110.619 71.3942 108.943 76.3335 108.396 80.8596C107.977 84.3469 107.126 91.3639 106.768 94.8025C106.506 97.257 106.172 99.9362 105.413 102.239C104.653 104.541 103.718 106.625 102.594 108.49C101.47 110.349 100.121 111.923 98.5416 113.199C96.962 114.475 95.03 115.228 92.7518 115.459C91.0203 115.635 89.2706 115.234 87.5027 114.268C85.7347 113.296 84.55 111.449 84.307 109.092C84.0579 106.656 84.2827 99.5231 84.8295 95.1792C85.3763 90.8353 86.4395 84.4198 87.0288 81.9592C88.1163 77.4331 87.0895 73.5874 86.7675 72.6214C86.6157 72.1658 86.1539 71.8984 85.6861 71.9835C83.9607 72.3055 79.8355 72.8523 76.8951 71.4549C75.7954 70.9325 72.1867 68.7393 72.0044 62.9434C71.8525 58.0588 75.6618 55.2641 78.1587 54.4318C81.4151 53.3443 86.16 53.4597 87.6606 52.19C89.1612 50.9263 90.4857 49.3163 91.64 47.3722C93.1892 44.6687 94.38 41.9287 95.2123 39.1401C96.0385 36.3515 96.798 33.6358 97.4784 30.9809C98.1588 28.326 98.9547 25.7804 99.8599 23.3442C100.765 20.908 102.029 18.733 103.663 16.8132C105.297 14.8994 107.497 13.2834 110.261 11.965C113.025 10.6528 116.652 9.75968 121.136 9.30403C122.788 9.13392 124.587 9.03064 126.531 8.99418C128.475 8.95773 130.261 9.15214 131.895 9.57742C133.53 10.0088 134.939 10.7743 136.124 11.8861C137.308 12.9978 138.013 14.6139 138.232 16.7403L138.226 16.7281Z" fill="#677023"/>
<path d="M178.178 11.8401C178.433 14.3614 178.178 17.2472 177.394 20.5036C176.61 23.7661 175.596 27.2472 174.35 30.9471C173.099 34.6531 171.726 38.5292 170.231 42.5754C168.737 46.6216 167.382 50.6981 166.173 54.7929C164.964 58.8938 164.01 62.9825 163.312 67.0651C162.613 71.1539 162.455 75.0421 162.838 78.742C163.032 80.6314 163.427 82.1624 164.022 83.3289C164.618 84.5014 165.219 85.5342 165.827 86.4212C166.434 87.3143 167.017 88.1466 167.57 88.9243C168.129 89.7019 168.463 90.68 168.585 91.8587C168.804 93.985 168.476 95.8623 167.613 97.5027C166.744 99.143 165.578 100.553 164.113 101.737C162.643 102.922 160.948 103.851 159.034 104.52C157.115 105.194 155.25 105.619 153.445 105.808C148.409 106.324 144.15 105.285 140.669 102.703C137.187 100.121 135.164 96.075 134.599 90.5646C134.259 87.2596 134.368 82.8793 134.927 77.4176C135.48 71.9558 136.428 66.0749 137.777 59.7808C139.119 53.4867 140.796 47.1137 142.801 40.6677C144.806 34.2218 147.09 28.3651 149.648 23.0978C152.212 17.8304 155.043 13.444 158.141 9.95069C161.24 6.45736 164.484 4.53147 167.868 4.18518C168.731 4.09405 169.721 4.03937 170.833 4.00292C171.945 3.97254 172.996 4.1791 173.998 4.63476C175.001 5.09041 175.894 5.87413 176.683 6.98592C177.473 8.09771 177.977 9.71375 178.19 11.8401H178.178Z" fill="#677023"/>
<path d="M234.434 60.6774C234.938 65.6349 234.568 70.3798 233.328 74.9181C232.083 79.4564 230.072 83.4965 227.295 87.0384C224.519 90.5804 221.08 93.5148 216.986 95.8416C212.891 98.1685 208.249 99.5962 203.055 100.125C198.966 100.544 195.017 100.246 191.22 99.2499C187.423 98.2475 184.033 96.6071 181.062 94.3289C178.085 92.0506 175.631 89.2377 173.705 85.9024C171.773 82.5609 170.588 78.7699 170.157 74.5232C169.604 69.0979 170.096 64.0371 171.645 59.3469C173.194 54.6568 175.515 50.5437 178.614 47.0079C181.712 43.472 185.509 40.5984 190.017 38.393C194.519 36.1876 199.41 34.8085 204.677 34.2739C208.14 33.9215 211.548 34.2739 214.92 35.3128C218.286 36.3578 221.336 38.0163 224.069 40.2824C226.803 42.5486 229.1 45.3918 230.965 48.8183C232.824 52.2448 233.984 56.1999 234.44 60.6835L234.434 60.6774ZM217.599 58.1076C217.21 54.3287 215.843 51.449 213.498 49.4623C211.147 47.4757 208.085 46.6798 204.312 47.0625C201.955 47.3056 199.914 47.9678 198.194 49.0613C196.475 50.1488 195.09 51.5279 194.027 53.1865C192.964 54.8451 192.222 56.7284 191.803 58.8366C191.384 60.9448 191.287 63.1015 191.512 65.3069C191.682 66.9594 192.204 68.3931 193.085 69.6204C193.966 70.8415 195.041 71.8257 196.305 72.573C197.575 73.3203 198.96 73.8549 200.461 74.1769C201.961 74.4989 203.425 74.59 204.841 74.4442C206.809 74.2437 208.614 73.6605 210.266 72.6945C211.913 71.7346 213.322 70.5135 214.483 69.0432C215.643 67.573 216.506 65.8962 217.071 64.0067C217.63 62.1234 217.812 60.155 217.599 58.1076Z" fill="#677023"/>
<path d="M327.839 32.09C328.094 34.6113 328.033 37.7158 327.657 41.4096C327.28 45.1034 326.599 48.9916 325.627 53.0621C324.649 57.1387 323.379 61.2396 321.818 65.3769C320.251 69.5142 318.41 73.2567 316.29 76.6103C314.169 79.9699 311.788 82.7524 309.157 84.97C306.52 87.1875 303.628 88.4572 300.481 88.7792C298.124 89.0222 296.174 88.603 294.631 87.5277C293.088 86.4523 291.812 85.055 290.803 83.3296C289.795 81.6042 288.956 79.6844 288.306 77.5641C287.65 75.4438 287.018 73.5057 286.399 71.7378C285.779 69.976 285.117 68.5118 284.4 67.3514C283.683 66.191 282.735 65.6746 281.557 65.7961C279.904 65.9662 278.294 66.7682 276.733 68.1959C275.171 69.6297 273.616 71.3551 272.073 73.3842C270.53 75.4134 268.987 77.6127 267.444 80.0003C265.9 82.3819 264.315 84.5933 262.693 86.6285C261.071 88.6638 259.4 90.4013 257.681 91.8473C255.961 93.2932 254.157 94.1134 252.267 94.3078C250.457 94.4901 248.634 94.3625 246.8 93.9129C244.965 93.4633 243.282 92.7221 241.745 91.6893C240.208 90.6565 238.926 89.3746 237.893 87.8497C236.86 86.3248 236.247 84.5811 236.046 82.6127C235.827 80.4863 235.809 77.7889 235.991 74.5082C236.174 71.2336 236.593 67.7524 237.249 64.0646C237.905 60.383 238.774 56.6588 239.861 52.886C240.949 49.1192 242.304 45.6806 243.932 42.5761C245.56 39.4716 247.444 36.8956 249.582 34.8421C251.714 32.7947 254.163 31.6343 256.915 31.3488C259.193 31.1179 260.797 31.6283 261.721 32.8859C262.644 34.1435 263.203 35.717 263.397 37.6003C263.622 39.8057 263.598 42.1083 263.331 44.5202C263.057 46.9321 263.009 48.9248 263.167 50.4983C263.325 52.0719 263.883 52.8495 264.837 52.8313C266.727 52.6369 268.318 51.92 269.625 50.6745C270.931 49.4291 272.085 47.9163 273.094 46.1484C274.102 44.3744 275.044 42.4546 275.901 40.3768C276.763 38.3051 277.717 36.3731 278.768 34.5991C279.819 32.8251 280.998 31.3123 282.298 30.0669C283.604 28.8214 285.238 28.0985 287.201 27.898C288.616 27.7522 289.795 28.2078 290.737 29.2649C291.678 30.3221 292.535 31.6647 293.294 33.299C294.06 34.9333 294.734 36.7316 295.336 38.6939C295.931 40.6623 296.532 42.4667 297.14 44.1131C297.741 45.7596 298.422 47.1204 299.169 48.1958C299.916 49.2711 300.797 49.7571 301.824 49.6539C303.635 49.4716 305.008 48.7304 305.949 47.4424C306.891 46.1545 307.602 44.5931 308.094 42.7522C308.58 40.9114 308.975 38.9248 309.272 36.7923C309.57 34.6538 310.002 32.6611 310.573 30.8202C311.138 28.9733 311.891 27.4059 312.833 26.1179C313.774 24.8299 315.19 24.0887 317.079 23.8943C318.337 23.7667 319.582 23.8579 320.804 24.1677C322.031 24.4776 323.136 25 324.121 25.7352C325.111 26.4703 325.937 27.3816 326.606 28.463C327.274 29.5505 327.675 30.7595 327.808 32.0961L327.839 32.09Z" fill="#677023"/>
</svg>
