<?xml version="1.0" standalone="no"?>
<!DOCTYPE svg PUBLIC "-//W3C//DTD SVG 20010904//EN"
 "http://www.w3.org/TR/2001/REC-SVG-20010904/DTD/svg10.dtd">
<svg version="1.0" xmlns="http://www.w3.org/2000/svg"
 width="66.000000pt" height="50.000000pt" viewBox="0 0 66.000000 50.000000"
 preserveAspectRatio="xMidYMid meet">

<g transform="translate(0.000000,50.000000) scale(0.100000,-0.100000)"
fill="#2E52B2" stroke="none">
<path d="M122 477 c-71 -40 -74 -151 -5 -188 91 -49 186 47 142 144 -22 48
-90 70 -137 44z"/>
<path d="M454 406 c-83 -70 24 -192 110 -125 20 16 26 29 26 60 0 78 -78 116
-136 65z"/>
<path d="M83 232 c-12 -2 -34 -17 -48 -33 -22 -27 -25 -40 -25 -110 0 -43 3
-79 8 -80 4 0 44 -2 90 -5 l83 -4 -16 22 c-25 37 -19 85 14 119 26 25 37 29
88 29 l58 0 -31 31 c-30 29 -36 31 -115 33 -46 1 -94 1 -106 -2z"/>
<path d="M404 203 l-29 -28 47 -5 c66 -8 98 -40 98 -96 0 -24 -6 -46 -12 -51
-8 -5 11 -10 47 -14 95 -8 95 -8 95 77 0 68 -2 76 -31 109 -31 34 -32 35 -109
35 -70 0 -80 -2 -106 -27z"/>
<path d="M216 114 c-21 -21 -20 -57 2 -77 25 -23 127 -24 136 -2 4 11 -2 15
-22 15 -37 0 -56 14 -48 35 5 14 14 16 47 12 49 -6 69 -22 69 -53 0 -18 5 -24
23 -24 54 0 82 67 41 97 -28 20 -227 18 -248 -3z"/>
</g>
</svg>
